<?xml version="1.0" standalone="no"?>
<!DOCTYPE svg PUBLIC "-//W3C//DTD SVG 20010904//EN"
   "http://www.w3.org/TR/2001/REC-SVG-20010904/DTD/svg10.dtd">

<svg xmlns="http://www.w3.org/2000/svg" xmlns:xlink="http://www.w3.org/1999/xlink" width="792px" height="792px" viewBox="0 0 506 506 ">
   <g id="cvpage1_top" width="612px" height="792px" transform="translate(0,0)">
      <path d="M 276 35.1 C 353.6 42.1 422.4 90 456.1 160.5 C 470.814 191.241 477.779 223.728 477.779 255.736 C 477.779 338.369 431.359 417.814 352 455.8 C 330.6 466.1 312.6 471.7 288.5 475.7 C 281.1 476.9 268.5 477.5 255.875 477.5 C 243.25 477.5 230.6 476.9 223.1 475.7 C 185.9 469.7 153 455.9 123 433.7 C 110 424.1 86.2 400 76.8 387 C 48.563 347.808 34.15 303.801 34.15 256.83 C 34.15 254.064 34.2 251.287 34.3 248.5 C 35.5 214.9 42.6 186.9 57.2 157.5 C 78.9 113.9 114.1 78.8 157.8 57.2 C 188.501 42.059 222.282 34.195 256.156 34.195 C 262.774 34.195 269.397 34.495 276 35.1 M 245 63.6 C 189.5 68.2 143.1 91.4 109.2 131.2 C 78.724 167.107 63.474 211.537 63.474 255.969 C 63.474 299.888 78.374 343.808 108.2 379.5 C 125.9 400.8 146.5 416.9 171.5 429.1 C 198.35 442.15 227.175 448.675 256 448.675 C 284.825 448.675 313.65 442.15 340.5 429.1 C 379.5 410.1 409.9 379.7 429.1 340.5 C 442.166 313.821 448.554 284.982 448.554 256.268 C 448.554 211.362 432.932 166.761 402.8 131.2 C 373 96.1 329.8 72.1 284.5 65.6 C 276.1 64.32 260.724 63.424 251.018 63.424 C 248.592 63.424 246.52 63.48 245 63.6 " fill="#FFF" fill-rule="evenodd" stroke="none" />
      <path d="M 276 35.1 C 353.6 42.1 422.4 90 456.1 160.5 C 470.814 191.241 477.779 223.728 477.779 255.736 C 477.779 338.369 431.359 417.814 352 455.8 C 330.6 466.1 312.6 471.7 288.5 475.7 C 281.1 476.9 268.5 477.5 255.875 477.5 C 243.25 477.5 230.6 476.9 223.1 475.7 C 185.9 469.7 153 455.9 123 433.7 C 110 424.1 86.2 400 76.8 387 C 48.563 347.808 34.15 303.801 34.15 256.83 C 34.15 254.064 34.2 251.287 34.3 248.5 C 35.5 214.9 42.6 186.9 57.2 157.5 C 78.9 113.9 114.1 78.8 157.8 57.2 C 188.501 42.059 222.282 34.195 256.156 34.195 C 262.774 34.195 269.397 34.495 276 35.1 M 245 63.6 C 189.5 68.2 143.1 91.4 109.2 131.2 C 78.724 167.107 63.474 211.537 63.474 255.969 C 63.474 299.888 78.374 343.808 108.2 379.5 C 125.9 400.8 146.5 416.9 171.5 429.1 C 198.35 442.15 227.175 448.675 256 448.675 C 284.825 448.675 313.65 442.15 340.5 429.1 C 379.5 410.1 409.9 379.7 429.1 340.5 C 442.166 313.821 448.554 284.982 448.554 256.268 C 448.554 211.362 432.932 166.761 402.8 131.2 C 373 96.1 329.8 72.1 284.5 65.6 C 276.1 64.32 260.724 63.424 251.018 63.424 C 248.592 63.424 246.52 63.48 245 63.6 " fill="#FFF" fill-rule="evenodd" stroke="none" />
      <path d="M 276 35.1 C 353.6 42.1 422.4 90 456.1 160.5 C 470.814 191.241 477.779 223.728 477.779 255.736 C 477.779 338.369 431.359 417.814 352 455.8 C 330.6 466.1 312.6 471.7 288.5 475.7 C 281.1 476.9 268.5 477.5 255.875 477.5 C 243.25 477.5 230.6 476.9 223.1 475.7 C 185.9 469.7 153 455.9 123 433.7 C 110 424.1 86.2 400 76.8 387 C 48.563 347.808 34.15 303.801 34.15 256.83 C 34.15 254.064 34.2 251.287 34.3 248.5 C 35.5 214.9 42.6 186.9 57.2 157.5 C 78.9 113.9 114.1 78.8 157.8 57.2 C 188.501 42.059 222.282 34.195 256.156 34.195 C 262.774 34.195 269.397 34.495 276 35.1 M 245 63.6 C 189.5 68.2 143.1 91.4 109.2 131.2 C 78.724 167.107 63.474 211.537 63.474 255.969 C 63.474 299.888 78.374 343.808 108.2 379.5 C 125.9 400.8 146.5 416.9 171.5 429.1 C 198.35 442.15 227.175 448.675 256 448.675 C 284.825 448.675 313.65 442.15 340.5 429.1 C 379.5 410.1 409.9 379.7 429.1 340.5 C 442.166 313.821 448.554 284.982 448.554 256.268 C 448.554 211.362 432.932 166.761 402.8 131.2 C 373 96.1 329.8 72.1 284.5 65.6 C 276.1 64.32 260.724 63.424 251.018 63.424 C 248.592 63.424 246.52 63.48 245 63.6 " fill="#FFF" fill-rule="evenodd" stroke="none" />
      <path d="M 276 35.1 C 353.6 42.1 422.4 90 456.1 160.5 C 470.814 191.241 477.779 223.728 477.779 255.736 C 477.779 338.369 431.359 417.814 352 455.8 C 330.6 466.1 312.6 471.7 288.5 475.7 C 281.1 476.9 268.5 477.5 255.875 477.5 C 243.25 477.5 230.6 476.9 223.1 475.7 C 185.9 469.7 153 455.9 123 433.7 C 110 424.1 86.2 400 76.8 387 C 48.563 347.808 34.15 303.801 34.15 256.83 C 34.15 254.064 34.2 251.287 34.3 248.5 C 35.5 214.9 42.6 186.9 57.2 157.5 C 78.9 113.9 114.1 78.8 157.8 57.2 C 188.501 42.059 222.282 34.195 256.156 34.195 C 262.774 34.195 269.397 34.495 276 35.1 M 245 63.6 C 189.5 68.2 143.1 91.4 109.2 131.2 C 78.724 167.107 63.474 211.537 63.474 255.969 C 63.474 299.888 78.374 343.808 108.2 379.5 C 125.9 400.8 146.5 416.9 171.5 429.1 C 198.35 442.15 227.175 448.675 256 448.675 C 284.825 448.675 313.65 442.15 340.5 429.1 C 379.5 410.1 409.9 379.7 429.1 340.5 C 442.166 313.821 448.554 284.982 448.554 256.268 C 448.554 211.362 432.932 166.761 402.8 131.2 C 373 96.1 329.8 72.1 284.5 65.6 C 276.1 64.32 260.724 63.424 251.018 63.424 C 248.592 63.424 246.52 63.48 245 63.6 " fill="#FFF" fill-rule="evenodd" stroke="none" />
      <path d="M 291.3 70.5 C 293.8 70.917 294.703 71.333 294.703 72.213 C 294.703 72.389 294.667 72.583 294.6 72.8 C 294.3 73.7 293.1 79 292 84.5 C 291.839 85.297 291.69 86.046 291.548 86.751 C 289.806 95.454 289.423 97.369 287.595 97.369 C 287.08 97.369 286.449 97.216 285.641 97.021 C 285.351 96.951 285.039 96.876 284.7 96.8 C 282.4 96.3 280.4 95.8 280.3 95.6 C 280.294 95.594 280.291 95.564 280.291 95.512 C 280.291 94.746 280.97 89.155 282 82.6 C 283.1 75.5 284 69.5 284 69.3 C 284 69.2 284.2 69.15 284.525 69.15 C 284.85 69.15 285.3 69.2 285.8 69.3 C 286.7 69.6 289.2 70.1 291.3 70.5 " fill="#1C8EFF" fill-rule="evenodd" stroke="none" />
      <path d="M 308.5 74.2 C 311 74.9 313 75.7 313 76.1 C 313 76.4 311.2 82.5 308.9 89.4 C 305.843 99.127 304.76 101.645 303.504 101.645 C 303.404 101.645 303.303 101.629 303.2 101.6 C 302.534 101.378 301.264 101.046 300.041 100.726 C 299.613 100.614 299.19 100.504 298.8 100.4 C 297.2 100.1 296 99.4 296 98.9 C 296 96.2 302.4 73 303.1 73 C 303.6 73 306 73.5 308.5 74.2 " fill="#389CFF" fill-rule="evenodd" stroke="none" />
      <path d="M 325.6 80.1 C 328.3 81.2 330.6 82.2 330.7 82.4 C 330.711 82.405 330.716 82.423 330.716 82.453 C 330.716 82.974 329.077 87.179 326.9 92.1 C 325.895 94.476 324.827 96.936 323.896 99.078 C 322.791 101.624 321.88 103.722 321.5 104.7 C 321.5 104.7 320.1 107.9 320.1 107.9 C 320.1 107.9 315.8 106.3 315.8 106.3 C 313.4 105.4 311.3 104.5 311.1 104.4 C 311.096 104.396 311.094 104.387 311.094 104.373 C 311.094 103.628 316.168 88.718 319.7 79.2 C 319.729 79.126 319.757 79.056 319.783 78.99 C 319.994 78.445 320.115 78.135 320.58 78.135 C 321.199 78.135 322.428 78.684 325.289 79.962 C 325.391 80.007 325.494 80.053 325.6 80.1 " fill="#5AF" fill-rule="evenodd" stroke="none" />
      <path d="M 347.8 90.6 C 347.803 90.602 347.805 90.608 347.805 90.616 C 347.805 91.338 335.389 114.009 334.5 114.8 C 334.462 114.838 334.395 114.856 334.302 114.856 C 332.93 114.856 326 110.937 326 110 C 326 109.2 334.8 90.4 337 86.8 C 337.397 86.138 337.697 85.768 338.287 85.768 C 339.033 85.768 340.243 86.36 342.7 87.7 C 343.173 87.963 343.631 88.216 344.065 88.457 C 346.109 89.59 347.635 90.435 347.8 90.6 " fill="#71B8FF" fill-rule="evenodd" stroke="none" />
      <path d="M 361.9 99 C 361.9 99 364.3 100.7 364.3 100.7 C 364.3 100.7 356.4 111.8 356.4 111.8 C 352.1 118 348.2 123 347.7 123 C 347 123 343 120.5 340.1 118.3 C 340.094 118.297 340.091 118.289 340.091 118.275 C 340.091 117.856 343.12 112.398 346.9 106 C 346.9 106 354.1 94 354.1 94 C 354.1 94 356.9 95.6 356.9 95.6 C 358.4 96.5 360.7 98 361.9 99 " fill="#8EC7FF" fill-rule="evenodd" stroke="none" />
      <path d="M 374.6 108.2 C 376.936 109.952 378.704 111.704 378.704 112.165 C 378.704 112.178 378.703 112.189 378.7 112.2 C 378.2 113.9 361.5 133 360.5 133 C 360 132.9 358 131.6 356.2 130.1 C 356.2 130.1 352.8 127.2 352.8 127.2 C 352.8 127.2 361.1 116.1 361.1 116.1 C 365.7 110 369.7 105 369.9 105 C 370.085 105 371.892 106.281 374.059 107.817 C 374.237 107.943 374.418 108.071 374.6 108.2 " fill="#AAD5FF" fill-rule="evenodd" stroke="none" />
      <path d="M 388.9 121.3 C 388.9 121.3 393.1 125.1 393.1 125.1 C 393.1 125.1 383.4 134.3 383.4 134.3 C 378.1 139.4 373.2 143.6 372.6 143.8 C 372.578 143.804 372.555 143.805 372.53 143.805 C 371.856 143.805 369.939 142.535 368.3 140.8 C 368.3 140.8 365.1 137.5 365.1 137.5 C 365.1 137.5 374.3 127.3 374.3 127.3 C 379.4 121.8 383.8 117.3 384.1 117.3 C 384.5 117.4 386.6 119.2 388.9 121.3 " fill="#AAD5FF" fill-rule="evenodd" stroke="none" />
      <path d="M 405 139.2 C 405 139.5 400.1 143.7 394.1 148.4 C 394.1 148.4 383.1 156.9 383.1 156.9 C 383.1 156.9 380 153.4 380 153.4 C 378.416 151.537 377.18 149.673 377.18 148.942 C 377.18 148.889 377.186 148.841 377.2 148.8 C 377.4 148.2 382.1 143.8 387.5 138.9 C 387.5 138.9 397.5 130 397.5 130 C 397.5 130 401.2 134.3 401.2 134.3 C 403.3 136.6 405 138.8 405 139.2 " fill="#C7E3FF" fill-rule="evenodd" stroke="none" />
      <path d="M 413 150 C 414.677 152.609 415.92 154.871 415.92 155.329 C 415.92 155.363 415.913 155.386 415.9 155.4 C 415.5 155.7 395.3 168.2 393.3 169.4 C 393.181 169.469 393.05 169.501 392.909 169.501 C 391.088 169.501 387.594 164.116 387.594 161.645 C 387.594 161.239 387.688 160.912 387.9 160.7 C 389.6 158.9 408.4 145.2 409.1 145.1 C 409.108 145.098 409.117 145.097 409.127 145.097 C 409.571 145.097 411.238 147.357 413 150 " fill="#E3F1FF" fill-rule="evenodd" stroke="none" />
      <path d="M 350.5 195.4 C 362.286 200.773 369.416 211.929 369.416 224.052 C 369.416 225.917 369.247 227.806 368.9 229.7 C 367.5 237.1 365.2 241.5 359.9 246.8 C 353 253.6 348.1 255.5 337.5 255.5 C 329.7 255.5 327.8 255.1 323.5 252.8 C 311.647 246.538 306.016 235.375 306.016 224.295 C 306.016 210.602 314.616 197.035 330.7 193 C 332.287 192.618 334.15 192.435 336.137 192.435 C 340.913 192.435 346.404 193.494 350.5 195.4 M 332.3 196 C 323.7 197.8 315.4 204.2 311.5 212 C 309.976 214.99 309.173 219.837 309.173 224.584 C 309.173 227.934 309.573 231.235 310.4 233.8 C 313.9 244.4 324.1 252.1 335.7 252.8 C 336.404 252.847 337.1 252.87 337.788 252.87 C 354.264 252.87 366.174 239.668 366.174 224.592 C 366.174 220.161 365.145 215.567 362.9 211.1 C 358.121 201.458 348.1 195.456 337.683 195.456 C 335.892 195.456 334.09 195.633 332.3 196 " fill="#FF8E8E" fill-rule="evenodd" stroke="none" />
      <path d="M 344.4 204.1 C 352.1 206.2 359 216 359 224.9 C 359 233.1 351.8 242.1 343.2 244.6 C 341.087 245.237 339.066 245.555 337.11 245.555 C 332.311 245.555 327.905 243.637 323.5 239.8 C 318.677 235.537 316.358 229.865 316.358 224.244 C 316.358 216.813 320.413 209.472 328.1 205.6 C 331.556 203.902 334.534 203.087 337.725 203.087 C 339.797 203.087 341.959 203.431 344.4 204.1 M 330.4 208.9 C 324.5 211.6 321.7 216.1 321.2 223.5 C 321.137 224.548 321.101 225.447 321.101 226.24 C 321.101 229.228 321.62 230.708 323.2 233 C 326.761 238.241 332.038 241.089 337.636 241.089 C 340.368 241.089 343.177 240.411 345.9 239 C 351.73 236.037 354.568 230.357 354.568 224.601 C 354.568 218.31 351.179 211.929 344.6 208.9 C 342 207.75 339.75 207.175 337.5 207.175 C 335.25 207.175 333 207.75 330.4 208.9 " fill="#F55" fill-rule="evenodd" stroke="none" />
      <path d="M 344.1 217.9 C 346.012 219.853 346.931 222.153 346.931 224.391 C 346.931 227.652 344.978 230.78 341.3 232.5 C 340.045 233.092 338.74 233.37 337.462 233.37 C 333.339 233.37 329.492 230.48 328.5 225.9 C 328.354 225.237 328.284 224.59 328.284 223.964 C 328.284 218.88 332.856 215.18 337.639 215.18 C 339.898 215.18 342.205 216.005 344.1 217.9 " fill="#F00" fill-rule="evenodd" stroke="none" />
      <path d="M 308.6 383.8 C 309.154 384.17 309.443 385.221 309.443 387.119 C 309.443 388.304 309.33 389.817 309.1 391.7 C 308.9 393.4 306.1 396 304.4 396 C 303.6 396 302 393.9 300.7 391.2 C 299.5 388.6 298.1 386.2 297.5 385.8 C 296.938 385.384 296.698 385.052 296.698 384.812 C 296.698 384.508 297.078 384.349 297.672 384.349 C 298.535 384.349 299.847 384.684 301.1 385.4 C 302.49 386.243 303.81 386.642 304.804 386.642 C 305.873 386.642 306.566 386.18 306.566 385.313 C 306.566 385.072 306.513 384.801 306.4 384.5 C 306.282 384.185 306.226 383.916 306.226 383.697 C 306.226 383.259 306.452 383.024 306.855 383.024 C 307.268 383.024 307.868 383.271 308.6 383.8 " fill="#5AF" fill-rule="evenodd" stroke="none" />
      <path d="M 137.9 256.6 C 139.252 258.331 139.873 259.184 139.873 259.998 C 139.873 260.689 139.426 261.352 138.6 262.5 C 137.891 263.463 137.515 263.938 137.057 263.938 C 136.611 263.938 136.087 263.488 135.1 262.6 C 133.7 261.3 133 259.15 133 257.325 C 133 255.5 133.7 254 135.1 254 C 135.5 254 136.8 255.2 137.9 256.6 " fill="#5AF" fill-rule="evenodd" stroke="none" />
      <path d="M 235.6 215.4 C 235.66 215.54 235.688 215.744 235.688 215.998 C 235.688 217.012 235.24 218.82 234.6 220.5 C 233.65 222.672 233.16 223.508 232.537 223.508 C 232.242 223.508 231.917 223.321 231.5 223 C 230.562 222.21 230.087 221.226 230.087 220.094 C 230.087 218.933 230.587 217.618 231.6 216.2 C 232.554 214.798 233.445 214.087 234.184 214.087 C 234.763 214.087 235.249 214.522 235.6 215.4 " fill="#5AF" fill-rule="evenodd" stroke="none" />
      <path d="M 249.3 256.7 C 249.371 257.044 249.404 257.409 249.404 257.786 C 249.404 260.582 247.575 264 245.9 264 C 244.567 264 238.25 257.747 238.25 256.542 C 238.25 256.482 238.267 256.434 238.3 256.4 C 238.377 256.323 238.506 256.286 238.675 256.286 C 239.169 256.286 240.007 256.604 240.9 257.2 C 241.637 257.65 242.156 257.9 242.601 257.9 C 243.244 257.9 243.732 257.381 244.5 256.2 C 245.539 254.783 246.533 254.08 247.357 254.08 C 248.277 254.08 248.983 254.958 249.3 256.7 " fill="#5AF" fill-rule="evenodd" stroke="none" />
      <path d="M 236.9 238.2 C 236.614 243.345 235.478 246.039 234.035 246.039 C 232.954 246.039 231.699 244.527 230.5 241.4 C 229.712 239.233 229.312 238.085 229.312 237.263 C 229.312 236.415 229.737 235.914 230.6 235 C 231.7 234 233.5 233.1 234.8 233.1 C 234.962 233.092 235.112 233.088 235.251 233.088 C 236.591 233.088 236.96 233.523 236.96 235.958 C 236.96 236.571 236.937 237.31 236.9 238.2 " fill="#5AF" fill-rule="evenodd" stroke="none" />
      <path d="M 286.3 100.9 C 346.2 112.9 394 158.2 409.1 217.2 C 412.386 230.094 413.969 243.09 413.969 255.929 C 413.969 314.985 380.481 370.729 325.2 398 C 303.79 408.544 279.568 413.963 255.327 413.963 C 241.865 413.963 228.397 412.292 215.4 408.9 C 164.5 395.6 121.8 355.2 105.6 305.1 C 100.45 289.252 97.874 272.546 97.874 255.869 C 97.874 238.87 100.55 221.901 105.9 205.9 C 114.4 180.8 127.7 159.9 147.4 141.3 C 171.7 118.3 202.4 103.6 235.5 99.1 C 239.4 98.567 244.978 98.322 251.137 98.322 C 263.456 98.322 278.1 99.3 286.3 100.9 M 270.3 109.2 C 265.993 114.037 264.189 116.328 264.189 117.323 C 264.189 117.829 264.656 118 265.5 118 C 266.2 118 267.3 118.7 267.8 119.7 C 268.225 120.408 268.85 120.815 269.57 120.815 C 269.866 120.815 270.179 120.746 270.5 120.6 C 270.795 120.495 271.099 120.445 271.408 120.445 C 274.039 120.445 277.01 124.052 277.1 127.9 C 277.1 127.9 277.2 131.5 277.2 131.5 C 277.2 131.5 278.2 128.5 278.2 128.5 C 278.439 127.686 278.724 126.804 278.979 126.017 C 279.256 125.16 279.496 124.417 279.6 124 C 279.779 123.463 279.973 123.181 280.195 123.181 C 280.963 123.181 282.06 126.562 284 134.4 C 284 134.4 286.2 143.3 286.2 143.3 C 286.2 143.3 283.5 145.4 283.5 145.4 C 282.098 146.569 281.447 147.157 281.447 147.683 C 281.447 148.058 281.776 148.401 282.4 148.9 C 283.431 149.759 284.002 150.978 284.002 151.864 C 284.002 152.525 283.684 153 283 153 C 282.336 153 282.01 153.742 282.01 154.682 C 282.01 155.725 282.411 157.011 283.2 157.8 C 283.966 158.566 285.33 158.934 286.929 158.934 C 289.087 158.934 291.675 158.264 293.8 157 C 295.913 155.721 297.13 155.161 297.589 155.161 C 297.732 155.161 297.802 155.215 297.802 155.32 C 297.802 156.083 294.079 159.508 288.3 163.7 C 283.992 166.749 282.144 168.479 282.144 169.911 C 282.144 170.64 282.623 171.292 283.5 172 C 284.408 172.778 284.885 173.406 284.885 174.128 C 284.885 175.075 284.06 176.183 282.3 178 C 280.7 179.5 278.9 181.5 278.1 182.5 C 277.348 183.419 276.247 183.85 274.797 183.85 C 274.511 183.85 274.212 183.833 273.9 183.8 C 273.249 183.707 272.744 183.641 272.352 183.641 C 271.059 183.641 271 184.36 271 187.2 C 271 190.8 270.7 191.2 266.8 193 C 264.4 194.1 261.9 195 261.1 195 C 260.3 195 258.6 195.9 257.4 197.1 C 256.341 198.106 255.759 198.579 255.222 198.579 C 254.746 198.579 254.306 198.206 253.6 197.5 C 252.7 196.6 252 195.2 252 194.4 C 252 192 253.9 189 255.5 189 C 256.3 189 257.6 187.6 258.5 186 C 259.497 184.068 260.766 183.029 261.799 183.029 C 262.423 183.029 262.961 183.409 263.3 184.2 C 263.438 184.512 263.637 184.667 263.903 184.667 C 264.407 184.667 265.154 184.112 266.2 183 C 267.5 181.6 270.2 179.4 272.3 178 C 274.988 176.233 275.789 175.529 275.789 173.892 C 275.789 173.398 275.716 172.819 275.6 172.1 C 275.3 170.2 274.4 168.2 273.5 167.8 C 272.501 167.192 272.03 166.395 272.03 165.689 C 272.03 164.768 272.829 164 274.3 164 C 277.163 164 278.925 162.264 278.925 160.362 C 278.925 159.342 278.418 158.273 277.3 157.4 C 276.532 156.809 276.148 156.358 276.148 155.984 C 276.148 155.726 276.332 155.505 276.7 155.3 C 277.248 154.843 277.713 153.969 277.713 153.212 C 277.713 153.14 277.709 153.069 277.7 153 C 277.689 152.916 277.684 152.813 277.684 152.695 C 277.684 151.697 278.042 149.578 278.4 147.7 C 278.664 146.644 278.788 144.948 278.788 143.11 C 278.788 141.467 278.689 139.711 278.5 138.2 C 278.5 138.2 277.8 132.5 277.8 132.5 C 277.8 132.5 276.1 138.5 276.1 138.5 C 274.5 144 270.8 151.3 267.7 155 C 263.993 159.372 261.099 161.215 257.988 161.215 C 257.826 161.215 257.663 161.21 257.5 161.2 C 256.884 161.149 256.367 161.112 255.929 161.112 C 253.805 161.112 253.512 161.973 252.6 166.2 C 252.2 167.8 251.4 169 250.6 169 C 248.695 169 247.697 170.019 247.697 171.733 C 247.697 172.808 248.09 174.158 248.9 175.7 C 249.774 177.449 250.196 178.836 250.196 179.861 C 250.196 180.359 250.096 180.773 249.9 181.1 C 249.4 181.9 249 183.5 249 184.7 C 249 185.9 248.1 187.4 247 188 C 246.432 188.303 245.993 188.462 245.619 188.462 C 245.003 188.462 244.559 188.032 244 187.1 C 243.5 186 243 184.3 243 183.2 C 243 182.1 242.1 180.1 241 178.7 C 239.9 177.3 239 175.3 239 174.2 C 239 173.078 238.883 172.578 238.094 172.578 C 237.616 172.578 236.893 172.761 235.8 173.1 C 233.605 173.699 232.159 174.026 231.334 174.026 C 230.743 174.026 230.471 173.858 230.471 173.5 C 230.471 173.106 230.801 172.482 231.4 171.6 C 232.082 170.535 232.473 169.923 232.473 169.65 C 232.473 169.53 232.398 169.475 232.24 169.475 C 231.912 169.475 231.224 169.713 230.1 170.1 C 227.122 171.146 223.626 174.33 223.626 175.533 C 223.626 175.825 223.832 176 224.3 176 C 225.2 176 226 176.4 226 177 C 226 177.435 227.289 177.719 228.943 177.719 C 229.188 177.719 229.442 177.713 229.7 177.7 C 230.18 177.669 230.602 177.653 230.974 177.653 C 233.007 177.653 233.546 178.148 233.8 179.5 C 233.818 179.618 233.827 179.735 233.827 179.853 C 233.827 181.034 232.91 182.2 231 183.2 C 231 183.2 227.9 184.9 227.9 184.9 C 227.9 184.9 230.6 190 230.6 190 C 232 192.7 233.6 195.3 234.1 195.6 C 234.675 195.935 234.952 197.35 234.952 198.821 C 234.952 200.419 234.625 202.083 234 202.5 C 233.4 202.9 231.9 205.3 230.5 208 C 227 214.9 219.3 220.3 210.7 221.9 C 208.088 222.35 206.855 222.963 206.855 223.811 C 206.855 223.904 206.87 224.001 206.9 224.1 C 207.216 225.223 207.372 226.198 207.372 227.034 C 207.372 228.581 206.839 229.651 205.8 230.3 C 205.088 230.766 204.461 230.974 203.95 230.974 C 203.054 230.974 202.518 230.335 202.518 229.337 C 202.518 228.588 202.82 227.636 203.5 226.6 C 204.3 225.4 204.7 224.75 204.7 224.325 C 204.7 223.9 204.3 223.7 203.5 223.4 C 203.305 223.311 203.091 223.267 202.857 223.267 C 201.775 223.267 200.274 224.226 198.3 226.2 C 198.3 226.2 194.8 229.7 194.8 229.7 C 194.8 229.7 199.7 234.3 199.7 234.3 C 202.4 236.8 205.2 240.1 206 241.5 C 206.476 242.379 206.751 242.99 206.751 243.573 C 206.751 244.582 205.928 245.509 203.9 247.6 C 200.108 251.53 195.889 253.986 193.634 253.986 C 192.618 253.986 192 253.487 192 252.4 C 192 249.9 185.9 245 182.8 245 C 180.981 245 180.012 245.76 180.012 246.609 C 180.012 247.301 180.654 248.051 182 248.5 C 183.294 248.894 183.923 249.351 183.923 249.978 C 183.923 250.466 183.543 251.057 182.8 251.8 C 182.43 252.17 182.254 252.644 182.254 253.192 C 182.254 255.16 184.523 258.075 188.2 260.5 C 191.1 262.5 192 263.7 192 265.9 C 192 267.5 192.3 269.6 192.7 270.5 C 192.836 270.88 192.912 271.171 192.912 271.382 C 192.912 271.681 192.759 271.819 192.401 271.819 C 192.078 271.819 191.59 271.707 190.9 271.5 C 190.495 271.378 190.189 271.31 189.988 271.31 C 189.804 271.31 189.708 271.368 189.708 271.495 C 189.708 271.911 190.737 273.076 193 275.4 C 196.061 278.543 197.411 279.634 198.975 279.634 C 199.301 279.634 199.637 279.586 200 279.5 C 200.416 279.417 200.797 279.373 201.156 279.373 C 202.525 279.373 203.574 280.016 205 281.6 C 205 281.6 207.5 284.3 207.5 284.3 C 207.5 284.3 204.4 283.7 204.4 283.7 C 202.8 283.4 200.9 283 200.3 282.8 C 200.175 282.758 200.05 282.738 199.928 282.738 C 199.467 282.738 199.058 283.025 198.9 283.5 C 198.885 283.562 198.878 283.626 198.878 283.691 C 198.878 285.415 203.861 288.215 208.1 288.6 C 210.5 288.8 217.1 290.2 222.8 291.7 C 228.752 293.203 231.451 293.802 234.656 293.802 C 236.782 293.802 239.131 293.539 242.8 293.1 C 253.733 291.797 258.858 291.2 261.156 291.2 C 262.511 291.2 262.883 291.408 262.883 291.801 C 262.883 291.918 262.85 292.051 262.8 292.2 C 262.5 292.9 260.4 293.7 257.9 294 C 255.5 294.3 251.6 295.5 249.3 296.7 C 246.606 298.159 244.793 298.863 243.12 298.863 C 241.813 298.863 240.591 298.433 239.1 297.6 C 238.053 297.046 237.006 296.757 235.889 296.757 C 235.193 296.757 234.469 296.869 233.7 297.1 C 233.021 297.279 232.177 297.368 231.19 297.368 C 229.412 297.368 227.171 297.079 224.6 296.5 C 221.3 295.7 216.9 295 214.9 295 C 212.9 295 208.1 294.1 204.4 292.9 C 198.1 291 196.7 290 189.3 282.5 C 184.947 278.147 181.399 274.868 181.031 274.868 C 181.011 274.868 181 274.878 181 274.9 C 181 275.3 181.5 276.1 182.2 276.8 C 182.596 277.196 182.799 277.476 182.799 277.666 C 182.799 277.906 182.472 278 181.8 278 C 179.526 278 176.507 273.945 176.507 271.256 C 176.507 270.988 176.537 270.735 176.6 270.5 C 176.73 270.008 176.799 269.609 176.799 269.284 C 176.799 268.354 176.234 268.022 174.9 267.8 C 173.4 267.6 172.3 266.5 171.7 264.5 C 171.1 262.8 170.2 261.2 169.6 260.8 C 169.121 260.481 168.904 260.189 168.904 259.947 C 168.904 259.515 169.598 259.239 170.726 259.239 C 171.337 259.239 172.076 259.32 172.9 259.5 C 174.5 259.8 177.8 261.7 180.2 263.5 C 182.545 265.409 184.206 266.395 184.794 266.395 C 184.947 266.395 185.028 266.328 185.028 266.192 C 185.028 265.894 184.643 265.267 183.8 264.3 C 180.967 261.089 176.351 252.082 176.351 249.826 C 176.351 249.693 176.367 249.583 176.4 249.5 C 176.483 249.28 176.52 249.052 176.52 248.829 C 176.52 248.242 176.262 247.69 175.9 247.4 C 175.486 247.193 175.262 246.509 175.262 245.744 C 175.262 245.4 175.307 245.041 175.4 244.7 C 175.526 244.239 175.581 243.463 175.581 242.539 C 175.581 241.258 175.474 239.695 175.3 238.3 C 175.3 238.3 174.7 233.9 174.7 233.9 C 174.7 233.9 172.4 236.1 172.4 236.1 C 171.184 237.24 170.084 237.788 169.203 237.788 C 167.898 237.788 167.075 236.583 167.075 234.316 C 167.075 234.088 167.083 233.849 167.1 233.6 C 167.152 233.13 167.18 232.705 167.18 232.315 C 167.18 230.47 166.552 229.421 164.9 228.1 C 163.4 227 162 224.7 161.7 223 C 161.1 220.2 160.7 220 156.9 220 C 153 220 152.1 220.6 142.9 229.7 C 142.9 229.7 133 239.4 133 239.4 C 133 239.4 133 244.7 133 244.7 C 133 249.1 132.5 250.5 130.5 252.6 C 129.22 253.88 127.689 254.826 126.978 254.826 C 126.911 254.826 126.852 254.817 126.8 254.8 C 126.1 254.5 124.4 251.3 122.8 247.6 C 121.3 243.9 119 239.6 117.6 237.9 C 116.1 236.1 114.9 233.1 114.5 230.2 C 114.286 228.343 114.02 226.384 113.85 225.124 C 113.782 224.62 113.729 224.229 113.7 224 C 113.6 223.1 112.2 222.4 110 222.2 C 108.1 222 106.2 221.3 105.8 220.7 C 105.528 220.255 105.299 219.987 105.084 219.987 C 104.429 219.987 103.905 222.472 102.7 230 C 101.226 239.01 100.492 247.967 100.492 256.799 C 100.492 274.924 103.582 292.527 109.7 309 C 121.8 341.4 141.6 366.6 170 385.6 C 195.966 402.925 225.911 411.408 255.715 411.408 C 294.551 411.408 333.149 397.006 362.4 369 C 388.1 344.4 403.3 316.1 409.1 282.2 C 410.4 274.5 411.05 265.25 411.05 256 C 411.05 246.75 410.4 237.5 409.1 229.8 C 401.4 185.3 374.2 145.7 335.1 122.2 C 330.22 119.297 328.278 118.187 327.507 118.187 C 327.029 118.187 327 118.612 327 119.3 C 327 120 325.6 121.9 323.9 123.6 C 319.5 127.7 310.5 140 308.6 144.3 C 307.8 146.4 306.6 148 306.1 148 C 305.42 148 305.089 147.548 305.089 146.849 C 305.089 146.006 305.57 144.803 306.5 143.6 C 307.3 142.5 308 140.9 308 139.9 C 308 139 308.8 138 309.8 137.8 C 311.51 137.311 312.4 134.882 312.4 131.401 C 312.4 129.184 312.039 126.54 311.3 123.7 C 310.66 121.06 310.212 117.716 310.212 115.409 C 310.212 114.832 310.24 114.32 310.3 113.9 C 310.3 113.9 310.8 110.2 310.8 110.2 C 310.8 110.2 302.1 107.6 302.1 107.6 C 293.7 105.1 280.1 102 277.7 102 C 277 102.1 273.7 105.3 270.3 109.2 " fill="#5AF" fill-rule="evenodd" stroke="none" />
      <path d="M 246.6 274.9 C 246.3 275.3 244 276.5 241.5 277.4 C 238.535 278.55 237.108 279.663 237.108 281.094 C 237.108 282.028 237.715 283.097 238.9 284.4 C 239.709 285.344 240.155 285.863 240.155 286.349 C 240.155 286.944 239.486 287.489 238 288.7 C 238 288.7 235.2 291 235.2 291 C 235.2 291 232.6 288.3 232.6 288.3 C 230.932 286.632 230.075 284.703 230.075 282.732 C 230.075 281.04 230.707 279.317 232 277.7 C 233.7 275.6 235.1 275 239.3 274.7 C 242.2 274.5 245.1 274.3 245.8 274.2 C 245.89 274.187 245.976 274.181 246.055 274.181 C 246.45 274.181 246.701 274.335 246.701 274.59 C 246.701 274.681 246.669 274.785 246.6 274.9 " fill="#5AF" fill-rule="evenodd" stroke="none" />
      <path d="M 230.9 263.5 C 231.459 264.026 231.715 264.584 231.715 265.097 C 231.715 266.144 230.645 267 228.9 267 C 227.655 267 227.05 267.288 227.05 268.173 C 227.05 268.852 227.406 269.881 228.1 271.4 C 228.563 272.327 228.788 273.067 228.788 273.691 C 228.788 274.279 228.588 274.763 228.2 275.2 C 227.7 275.9 226.9 278.7 226.5 281.3 C 225.846 285.368 224.665 287.325 222.649 287.325 C 221.89 287.325 221.012 287.047 220 286.5 C 218.88 285.86 217.376 285.54 216.205 285.54 C 215.912 285.54 215.64 285.56 215.4 285.6 C 215.303 285.625 215.198 285.637 215.086 285.637 C 212.085 285.637 204 276.87 204 273.4 C 204 271.884 204.191 271.133 204.774 271.133 C 205.306 271.133 206.164 271.759 207.5 273 C 208.752 274.183 209.714 274.639 211.329 274.639 C 212.035 274.639 212.866 274.552 213.9 274.4 C 217.2 273.9 218 273.3 218 271.6 C 218 270.4 219.4 267.5 221.1 265.1 C 223.219 262.275 224.229 261.297 225.629 261.297 C 226.013 261.297 226.426 261.371 226.9 261.5 C 228.3 261.8 230.1 262.7 230.9 263.5 " fill="#5AF" fill-rule="evenodd" stroke="none" />
      <path d="M 269.3 281.7 C 269.312 281.711 269.324 281.723 269.336 281.734 C 270.8 283.092 271.515 283.757 271.776 283.757 C 271.86 283.757 271.897 283.689 271.897 283.554 C 271.897 283.313 271.78 282.86 271.6 282.2 C 271.375 281.525 271.213 281.019 271.213 280.685 C 271.213 280.362 271.364 280.199 271.755 280.199 C 272.583 280.199 274.483 280.924 278.3 282.4 C 281.7 283.7 286.1 285.1 288.1 285.4 C 292.5 286.2 296.5 289.1 298.5 293 C 300.2 296.2 305.7 300 308.9 300 C 310.229 300 310.945 300.675 310.945 301.583 C 310.945 302.315 310.481 303.197 309.5 304 C 308.913 304.494 308.108 304.73 307.154 304.73 C 305.017 304.73 302.135 303.543 299.3 301.4 C 297.279 299.871 296.153 299.147 294.896 299.147 C 293.851 299.147 292.715 299.647 290.9 300.6 C 289.625 301.238 288.847 301.585 288.076 301.585 C 287.154 301.585 286.242 301.089 284.5 300 C 282.6 298.8 281 297.5 281 297 C 281 295.3 271.2 289 268.6 289 C 265.8 289 262 284.2 262 280.7 C 262 279.57 262.756 279.026 263.881 279.026 C 265.345 279.026 267.434 279.947 269.3 281.7 " fill="#5AF" fill-rule="evenodd" stroke="none" />
      <path d="M 293 308.1 C 294.3 310.5 296.4 313.3 297.7 314.3 C 299.3 315.6 300 317.2 300 319.8 C 300 322.8 300.8 324.1 305.2 328.2 C 308.1 330.8 310.7 333 311.1 333 C 311.5 333 312.1 334.4 312.5 336.1 C 312.9 337.8 314.1 340.1 315.3 341.3 C 316.7 342.7 317.7 345.4 318.2 349.3 C 318.411 350.957 318.549 352.188 318.549 353.279 C 318.549 355.809 317.806 357.589 315.5 362.2 C 313.784 365.723 312.557 369.001 312.557 369.897 C 312.557 369.993 312.571 370.061 312.6 370.1 C 312.805 370.429 312.897 370.829 312.897 371.258 C 312.897 372.917 311.53 375 310.1 375 C 309.1 375 307.1 375.9 305.6 377.1 C 304.316 378.078 303.48 378.533 302.774 378.533 C 302.325 378.533 301.927 378.35 301.5 378 C 301.015 377.612 300.577 377.412 300.082 377.412 C 299.559 377.412 298.972 377.637 298.2 378.1 C 297.278 378.679 296.273 378.954 295.245 378.954 C 292.37 378.954 289.315 376.809 287.4 373.2 C 286.2 370.9 284.1 367.7 282.7 366.1 C 282.7 366.1 280.3 363.3 280.3 363.3 C 280.3 363.3 279.2 366.3 279.2 366.3 C 279.2 366.3 278 369.4 278 369.4 C 278 369.4 273.2 364.7 273.2 364.7 C 269.4 360.9 267.8 360 265 360 C 259.9 360 249.1 362.8 247.4 364.5 C 246.4 365.4 244 366 241.1 366 C 238 366 235.8 366.5 235 367.5 C 234.178 368.505 232.584 368.988 230.886 368.988 C 228.865 368.988 226.695 368.304 225.5 367 C 224.662 366.043 224.255 365.408 224.255 364.859 C 224.255 364.491 224.439 364.161 224.8 363.8 C 225.589 363.011 225.99 361.282 225.99 359.689 C 225.99 358.253 225.664 356.927 225 356.5 C 224.5 356.2 224 354.9 224 353.6 C 224 352.4 222.6 349.5 220.9 347.2 C 219.251 344.909 218.378 343.311 218.378 341.569 C 218.378 339.509 219.599 337.247 222.2 333.4 C 225.2 329 226 328.5 231.4 327.3 C 238.1 325.8 240 324.6 240 321.9 C 240 320.8 241 319.6 242.4 319 C 243.7 318.5 245.2 316.8 245.8 315.1 C 246.682 312.58 247.803 311.369 249.436 311.369 C 250.395 311.369 251.531 311.786 252.9 312.6 C 254.395 313.477 255.199 313.901 255.833 313.901 C 256.428 313.901 256.873 313.527 257.6 312.8 C 258.5 311.9 259.3 310 259.3 308.6 C 259.3 305.887 260.834 304.423 263.558 304.423 C 264.449 304.423 265.467 304.58 266.6 304.9 C 268.009 305.271 269.638 305.477 270.672 305.477 C 271.031 305.477 271.319 305.452 271.5 305.4 C 271.694 305.318 271.883 305.279 272.065 305.279 C 273.419 305.279 274.402 307.431 274.402 310.158 C 274.402 310.656 274.369 311.173 274.3 311.7 C 274.211 312.322 274.157 312.841 274.157 313.29 C 274.157 314.861 274.822 315.578 277 316.9 C 278.569 317.859 280.291 318.438 281.17 318.438 C 281.299 318.438 281.41 318.426 281.5 318.4 C 281.636 318.342 281.776 318.314 281.916 318.314 C 282.496 318.314 283.078 318.795 283.4 319.6 C 283.677 320.321 283.924 320.673 284.293 320.673 C 284.589 320.673 284.965 320.446 285.5 320 C 286.5 319.1 287 316.8 287 312.5 C 287 306.276 287.565 303.24 288.866 303.24 C 289.823 303.24 291.178 304.88 293 308.1 " fill="#5AF" fill-rule="evenodd" stroke="none" />
      <clipPath id="cp07196B">
         <rect x="0px" y="0px" width="512px" height="512px" />
      </clipPath>
      <g clip-path="url(#cp07196B)">
         <path d="M 0 256 C 0 256 0 512 0 512 C 0 512 256 512 256 512 C 256 512 512 512 512 512 C 512 512 512 256 512 256 C 512 256 512 0 512 0 C 512 0 256 0 256 0 C 256 0 0 0 0 0 C 0 0 0 256 0 256 M 276 35.1 C 353.6 42.1 422.4 90 456.1 160.5 C 508.8 270.6 462.1 403.1 352 455.8 C 330.6 466.1 312.6 471.7 288.5 475.7 C 273.7 478.1 238.1 478.1 223.1 475.7 C 185.9 469.7 153 455.9 123 433.7 C 110 424.1 86.2 400 76.8 387 C 46.9 345.5 32.5 298.6 34.3 248.5 C 35.5 214.9 42.6 186.9 57.2 157.5 C 78.9 113.9 114.1 78.8 157.8 57.2 C 194.5 39.1 235.6 31.4 276 35.1 " fill="#000" fill-rule="nonzero" stroke="none" />
      </g>
      <clipPath id="cp07196C">
         <rect x="0px" y="0px" width="512px" height="512px" />
      </clipPath>
      <g clip-path="url(#cp07196C)">
         <path d="M 0 512 C 0 512 0 256 0 256 C 0 256 0 0 0 0 C 0 0 256 0 256 0 C 256 0 512 0 512 0 C 512 0 512 256 512 256 C 512 256 512 512 512 512 C 512 512 256 512 256 512 C 256 512 0 512 0 512 M 456.1 160.5 C 422.4 90 353.6 42.1 276 35.1 C 269.397 34.495 262.774 34.195 256.156 34.195 C 222.282 34.195 188.501 42.059 157.8 57.2 C 114.1 78.8 78.9 113.9 57.2 157.5 C 42.6 186.9 35.5 214.9 34.3 248.5 C 34.2 251.287 34.15 254.064 34.15 256.83 C 34.15 303.801 48.563 347.808 76.8 387 C 86.2 400 110 424.1 123 433.7 C 153 455.9 185.9 469.7 223.1 475.7 C 230.6 476.9 243.25 477.5 255.875 477.5 C 268.5 477.5 281.1 476.9 288.5 475.7 C 312.6 471.7 330.6 466.1 352 455.8 C 431.359 417.814 477.779 338.369 477.779 255.736 C 477.779 223.728 470.814 191.241 456.1 160.5 " fill="#0071E3" fill-rule="evenodd" stroke="none" />
      </g>
      <clipPath id="cp07196D">
         <rect x="0px" y="0px" width="512px" height="512px" />
      </clipPath>
      <g clip-path="url(#cp07196D)">
         <path d="M 245 63.6 C 189.5 68.2 143.1 91.4 109.2 131.2 C 48.6 202.6 48.2 307.7 108.2 379.5 C 125.9 400.8 146.5 416.9 171.5 429.1 C 225.2 455.2 286.8 455.2 340.5 429.1 C 379.5 410.1 409.9 379.7 429.1 340.5 C 462.6 272.1 452.2 189.5 402.8 131.2 C 373 96.1 329.8 72.1 284.5 65.6 C 274 64 252.6 63 245 63.6 M 291.3 70.5 C 294.3 71 295 71.5 294.6 72.8 C 294.3 73.7 293.1 79 292 84.5 C 289.1 98.9 289.6 97.9 284.7 96.8 C 282.4 96.3 280.4 95.8 280.3 95.6 C 280.2 95.5 280.9 89.6 282 82.6 C 283.1 75.5 284 69.5 284 69.3 C 284 69.1 284.8 69.1 285.8 69.3 C 286.7 69.6 289.2 70.1 291.3 70.5 M 308.5 74.2 C 311 74.9 313 75.7 313 76.1 C 313 76.4 311.2 82.5 308.9 89.4 C 305.6 99.9 304.6 102 303.2 101.6 C 302.3 101.3 300.3 100.8 298.8 100.4 C 297.2 100.1 296 99.4 296 98.9 C 296 96.2 302.4 73 303.1 73 C 303.6 73 306 73.5 308.5 74.2 M 274.7 78.7 C 274.4 79.7 274.2 79.1 274.2 77.5 C 274.2 75.8 274.4 75.1 274.7 75.7 C 274.9 76.4 274.9 77.8 274.7 78.7 M 325.6 80.1 C 328.3 81.2 330.6 82.2 330.7 82.4 C 330.9 82.5 329.2 86.9 326.9 92.1 C 324.7 97.3 322.2 102.9 321.5 104.7 C 321.5 104.7 320.1 107.9 320.1 107.9 C 320.1 107.9 315.8 106.3 315.8 106.3 C 313.4 105.4 311.3 104.5 311.1 104.4 C 310.9 104.2 316.1 88.9 319.7 79.2 C 320.3 77.7 320 77.6 325.6 80.1 M 273.7 87.7 C 273.4 88.7 273.2 87.9 273.2 86 C 273.2 84.1 273.4 83.3 273.7 84.2 C 273.9 85.2 273.9 86.8 273.7 87.7 M 347.8 90.6 C 348.1 90.8 335.4 114 334.5 114.8 C 333.9 115.4 326 111 326 110 C 326 109.2 334.8 90.4 337 86.8 C 337.9 85.3 338.3 85.3 342.7 87.7 C 345.4 89.2 347.6 90.4 347.8 90.6 M 272.7 94.2 C 272.4 95 272.1 94.7 272.1 93.6 C 272 92.5 272.3 91.9 272.6 92.3 C 272.9 92.6 273 93.5 272.7 94.2 M 361.9 99 C 361.9 99 364.3 100.7 364.3 100.7 C 364.3 100.7 356.4 111.8 356.4 111.8 C 352.1 118 348.2 123 347.7 123 C 347 123 343 120.5 340.1 118.3 C 339.9 118.2 343 112.6 346.9 106 C 346.9 106 354.1 94 354.1 94 C 354.1 94 356.9 95.6 356.9 95.6 C 358.4 96.5 360.7 98 361.9 99 M 286.3 100.9 C 346.2 112.9 394 158.2 409.1 217.2 C 427.5 289.4 392.5 364.8 325.2 398 C 291.9 414.4 251.8 418.4 215.4 408.9 C 164.5 395.6 121.8 355.2 105.6 305.1 C 95.2 273.1 95.3 237.6 105.9 205.9 C 114.4 180.8 127.7 159.9 147.4 141.3 C 171.7 118.3 202.4 103.6 235.5 99.1 C 247.2 97.5 274 98.5 286.3 100.9 M 374.6 108.2 C 377 110 378.8 111.8 378.7 112.2 C 378.2 113.9 361.5 133 360.5 133 C 360 132.9 358 131.6 356.2 130.1 C 356.2 130.1 352.8 127.2 352.8 127.2 C 352.8 127.2 361.1 116.1 361.1 116.1 C 365.7 110 369.7 105 369.9 105 C 370.1 105 372.2 106.5 374.6 108.2 M 388.9 121.3 C 388.9 121.3 393.1 125.1 393.1 125.1 C 393.1 125.1 383.4 134.3 383.4 134.3 C 378.1 139.4 373.2 143.6 372.6 143.8 C 372 143.9 370 142.6 368.3 140.8 C 368.3 140.8 365.1 137.5 365.1 137.5 C 365.1 137.5 374.3 127.3 374.3 127.3 C 379.4 121.8 383.8 117.3 384.1 117.3 C 384.5 117.4 386.6 119.2 388.9 121.3 M 405 139.2 C 405 139.5 400.1 143.7 394.1 148.4 C 394.1 148.4 383.1 156.9 383.1 156.9 C 383.1 156.9 380 153.4 380 153.4 C 378.3 151.4 377 149.4 377.2 148.8 C 377.4 148.2 382.1 143.8 387.5 138.9 C 387.5 138.9 397.5 130 397.5 130 C 397.5 130 401.2 134.3 401.2 134.3 C 403.3 136.6 405 138.8 405 139.2 M 413 150 C 414.8 152.8 416.1 155.2 415.9 155.4 C 415.5 155.7 395.3 168.2 393.3 169.4 C 391.4 170.5 386.3 162.3 387.9 160.7 C 389.6 158.9 408.4 145.2 409.1 145.1 C 409.5 145 411.2 147.3 413 150 M 422.5 165.3 C 423.9 167.7 425 170.2 425 170.8 C 425 172.4 401 184.4 400 183.3 C 399.6 182.9 398.3 180.8 397.1 178.8 C 395.4 176 395.2 175 396.2 174.3 C 400.6 171.5 418.6 161.1 419.2 161.1 C 419.6 161 421.1 163 422.5 165.3 " fill="#000" fill-rule="nonzero" stroke="none" />
      </g>
      <clipPath id="cp07196E">
         <rect x="0px" y="0px" width="512px" height="512px" />
      </clipPath>
      <g clip-path="url(#cp07196E)">
         <path d="M 109.2 131.2 C 143.1 91.4 189.5 68.2 245 63.6 C 246.52 63.48 248.592 63.424 251.018 63.424 C 260.724 63.424 276.1 64.32 284.5 65.6 C 329.8 72.1 373 96.1 402.8 131.2 C 432.932 166.761 448.554 211.362 448.554 256.268 C 448.554 284.982 442.166 313.821 429.1 340.5 C 409.9 379.7 379.5 410.1 340.5 429.1 C 313.65 442.15 284.825 448.675 256 448.675 C 227.175 448.675 198.35 442.15 171.5 429.1 C 146.5 416.9 125.9 400.8 108.2 379.5 C 78.374 343.808 63.474 299.888 63.474 255.969 C 63.474 211.537 78.724 167.107 109.2 131.2 M 294.703 72.213 C 294.703 71.333 293.8 70.917 291.3 70.5 C 289.2 70.1 286.7 69.6 285.8 69.3 C 285.3 69.2 284.85 69.15 284.525 69.15 C 284.2 69.15 284 69.2 284 69.3 C 284 69.5 283.1 75.5 282 82.6 C 280.97 89.156 280.291 94.746 280.291 95.512 C 280.291 95.564 280.294 95.594 280.3 95.6 C 280.4 95.8 282.4 96.3 284.7 96.8 C 285.038 96.876 285.351 96.952 285.641 97.022 C 286.449 97.217 287.08 97.369 287.595 97.369 C 289.423 97.369 289.806 95.455 291.548 86.751 C 291.69 86.046 291.84 85.297 292 84.5 C 293.1 79 294.3 73.7 294.6 72.8 C 294.667 72.583 294.703 72.389 294.703 72.213 M 313 76.1 C 313 75.7 311 74.9 308.5 74.2 C 306 73.5 303.6 73 303.1 73 C 302.4 73 296 96.2 296 98.9 C 296 99.4 297.2 100.1 298.8 100.4 C 299.189 100.504 299.613 100.615 300.041 100.727 C 301.264 101.046 302.534 101.378 303.2 101.6 C 303.303 101.629 303.404 101.645 303.504 101.645 C 304.76 101.645 305.843 99.127 308.9 89.4 C 311.2 82.5 313 76.4 313 76.1 M 274.437 79.189 C 274.511 79.189 274.6 79.033 274.7 78.7 C 274.8 78.25 274.85 77.675 274.85 77.125 C 274.85 76.575 274.8 76.05 274.7 75.7 C 274.629 75.558 274.563 75.489 274.505 75.489 C 274.316 75.489 274.2 76.203 274.2 77.5 C 274.2 78.567 274.289 79.189 274.437 79.189 M 330.7 82.4 C 330.6 82.2 328.3 81.2 325.6 80.1 C 325.494 80.053 325.391 80.007 325.289 79.962 C 322.428 78.684 321.199 78.135 320.58 78.135 C 320.115 78.135 319.994 78.445 319.783 78.99 C 319.757 79.056 319.729 79.126 319.7 79.2 C 316.168 88.718 311.094 103.628 311.094 104.373 C 311.094 104.387 311.096 104.396 311.1 104.4 C 311.3 104.5 313.4 105.4 315.8 106.3 C 315.8 106.3 320.1 107.9 320.1 107.9 C 320.1 107.9 321.5 104.7 321.5 104.7 C 321.88 103.723 322.791 101.625 323.896 99.079 C 324.827 96.936 325.895 94.476 326.9 92.1 C 329.077 87.179 330.716 82.974 330.716 82.453 C 330.716 82.423 330.711 82.406 330.7 82.4 M 273.463 88.133 C 273.532 88.133 273.612 87.995 273.7 87.7 C 273.8 87.25 273.85 86.625 273.85 85.988 C 273.85 85.35 273.8 84.7 273.7 84.2 C 273.616 83.95 273.541 83.831 273.475 83.831 C 273.304 83.831 273.2 84.629 273.2 86 C 273.2 87.34 273.3 88.133 273.463 88.133 M 347.805 90.616 C 347.805 90.608 347.803 90.602 347.8 90.6 C 347.635 90.435 346.109 89.59 344.065 88.457 C 343.631 88.216 343.173 87.963 342.7 87.7 C 340.243 86.36 339.033 85.768 338.287 85.768 C 337.697 85.768 337.397 86.138 337 86.8 C 334.8 90.4 326 109.2 326 110 C 326 110.937 332.93 114.856 334.302 114.856 C 334.395 114.856 334.462 114.838 334.5 114.8 C 335.389 114.009 347.805 91.338 347.805 90.616 M 272.372 94.652 C 272.47 94.652 272.585 94.507 272.7 94.2 C 272.826 93.907 272.881 93.579 272.881 93.274 C 272.881 92.851 272.774 92.474 272.6 92.3 C 272.537 92.216 272.473 92.176 272.414 92.176 C 272.229 92.176 272.08 92.559 272.08 93.186 C 272.08 93.314 272.087 93.453 272.1 93.6 C 272.1 94.278 272.214 94.652 272.372 94.652 M 364.3 100.7 C 364.3 100.7 361.9 99 361.9 99 C 360.7 98 358.4 96.5 356.9 95.6 C 356.9 95.6 354.1 94 354.1 94 C 354.1 94 346.9 106 346.9 106 C 343.12 112.398 340.091 117.856 340.091 118.275 C 340.091 118.289 340.094 118.297 340.1 118.3 C 343 120.5 347 123 347.7 123 C 348.2 123 352.1 118 356.4 111.8 C 356.4 111.8 364.3 100.7 364.3 100.7 M 409.1 217.2 C 394 158.2 346.2 112.9 286.3 100.9 C 278.1 99.3 263.456 98.322 251.137 98.322 C 244.978 98.322 239.4 98.567 235.5 99.1 C 202.4 103.6 171.7 118.3 147.4 141.3 C 127.7 159.9 114.4 180.8 105.9 205.9 C 100.55 221.901 97.874 238.87 97.874 255.869 C 97.874 272.546 100.45 289.252 105.6 305.1 C 121.8 355.2 164.5 395.6 215.4 408.9 C 228.397 412.292 241.865 413.963 255.327 413.963 C 279.568 413.963 303.79 408.544 325.2 398 C 380.481 370.729 413.969 314.985 413.969 255.929 C 413.969 243.09 412.386 230.094 409.1 217.2 M 378.704 112.165 C 378.704 111.704 376.936 109.952 374.6 108.2 C 374.418 108.071 374.237 107.943 374.059 107.817 C 371.892 106.281 370.085 105 369.9 105 C 369.7 105 365.7 110 361.1 116.1 C 361.1 116.1 352.8 127.2 352.8 127.2 C 352.8 127.2 356.2 130.1 356.2 130.1 C 358 131.6 360 132.9 360.5 133 C 361.5 133 378.2 113.9 378.7 112.2 C 378.703 112.189 378.704 112.178 378.704 112.165 M 393.1 125.1 C 393.1 125.1 388.9 121.3 388.9 121.3 C 386.6 119.2 384.5 117.4 384.1 117.3 C 383.8 117.3 379.4 121.8 374.3 127.3 C 374.3 127.3 365.1 137.5 365.1 137.5 C 365.1 137.5 368.3 140.8 368.3 140.8 C 369.938 142.535 371.856 143.805 372.529 143.805 C 372.555 143.805 372.578 143.804 372.6 143.8 C 373.2 143.6 378.1 139.4 383.4 134.3 C 383.4 134.3 393.1 125.1 393.1 125.1 M 394.1 148.4 C 400.1 143.7 405 139.5 405 139.2 C 405 138.8 403.3 136.6 401.2 134.3 C 401.2 134.3 397.5 130 397.5 130 C 397.5 130 387.5 138.9 387.5 138.9 C 382.1 143.8 377.4 148.2 377.2 148.8 C 377.186 148.841 377.18 148.889 377.18 148.942 C 377.18 149.674 378.416 151.537 380 153.4 C 380 153.4 383.1 156.9 383.1 156.9 C 383.1 156.9 394.1 148.4 394.1 148.4 M 415.92 155.329 C 415.92 154.871 414.677 152.609 413 150 C 411.238 147.357 409.571 145.097 409.127 145.097 C 409.117 145.097 409.108 145.098 409.1 145.1 C 408.4 145.2 389.6 158.9 387.9 160.7 C 387.688 160.912 387.594 161.239 387.594 161.645 C 387.594 164.116 391.088 169.501 392.909 169.501 C 393.05 169.501 393.181 169.469 393.3 169.4 C 395.3 168.2 415.5 155.7 415.9 155.4 C 415.914 155.386 415.92 155.363 415.92 155.329 M 425 170.8 C 425 170.2 423.9 167.7 422.5 165.3 C 421.134 163.055 419.672 161.096 419.231 161.096 C 419.22 161.096 419.209 161.098 419.2 161.1 C 418.6 161.1 400.6 171.5 396.2 174.3 C 395.803 174.578 395.595 174.903 395.595 175.369 C 395.595 176.078 396.075 177.112 397.1 178.8 C 398.3 180.8 399.6 182.9 400 183.3 C 400.044 183.348 400.131 183.371 400.259 183.371 C 403.052 183.371 425 172.33 425 170.8 " fill="#0071E3" fill-rule="evenodd" stroke="none" />
      </g>
      <clipPath id="cp07196F">
         <rect x="0px" y="0px" width="512px" height="512px" />
      </clipPath>
      <g clip-path="url(#cp07196F)">
         <path d="M 270.3 109.2 C 263.8 116.5 263 118 265.5 118 C 266.2 118 267.3 118.7 267.8 119.7 C 268.4 120.7 269.4 121.1 270.5 120.6 C 273.3 119.6 277 123.6 277.1 127.9 C 277.1 127.9 277.2 131.5 277.2 131.5 C 277.2 131.5 278.2 128.5 278.2 128.5 C 278.7 126.8 279.4 124.8 279.6 124 C 280.4 121.6 281.5 124.3 284 134.4 C 284 134.4 286.2 143.3 286.2 143.3 C 286.2 143.3 283.5 145.4 283.5 145.4 C 281.1 147.4 280.9 147.7 282.4 148.9 C 284.2 150.4 284.6 153 283 153 C 281.6 153 281.7 156.3 283.2 157.8 C 285 159.6 290.1 159.2 293.8 157 C 301.4 152.4 297.4 157.1 288.3 163.7 C 281.8 168.3 280.9 169.9 283.5 172 C 285.6 173.8 285.4 174.8 282.3 178 C 280.7 179.5 278.9 181.5 278.1 182.5 C 277.2 183.6 275.8 184 273.9 183.8 C 271.1 183.4 271 183.5 271 187.2 C 271 190.8 270.7 191.2 266.8 193 C 264.4 194.1 261.9 195 261.1 195 C 260.3 195 258.6 195.9 257.4 197.1 C 255.4 199 255.1 199 253.6 197.5 C 252.7 196.6 252 195.2 252 194.4 C 252 192 253.9 189 255.5 189 C 256.3 189 257.6 187.6 258.5 186 C 260.1 182.9 262.4 182.1 263.3 184.2 C 263.7 185.1 264.6 184.7 266.2 183 C 267.5 181.6 270.2 179.4 272.3 178 C 275.8 175.7 276.1 175.2 275.6 172.1 C 275.3 170.2 274.4 168.2 273.5 167.8 C 271.2 166.4 271.7 164 274.3 164 C 278.7 164 280.5 159.9 277.3 157.4 C 276 156.4 275.8 155.8 276.7 155.3 C 277.3 154.8 277.8 153.8 277.7 153 C 277.6 152.2 278 149.8 278.4 147.7 C 278.9 145.7 278.9 141.4 278.5 138.2 C 278.5 138.2 277.8 132.5 277.8 132.5 C 277.8 132.5 276.1 138.5 276.1 138.5 C 274.5 144 270.8 151.3 267.7 155 C 263.8 159.6 260.8 161.4 257.5 161.2 C 253.9 160.9 253.7 161.1 252.6 166.2 C 252.2 167.8 251.4 169 250.6 169 C 247.5 169 246.8 171.7 248.9 175.7 C 250.2 178.3 250.5 180.1 249.9 181.1 C 249.4 181.9 249 183.5 249 184.7 C 249 185.9 248.1 187.4 247 188 C 245.5 188.8 244.9 188.6 244 187.1 C 243.5 186 243 184.3 243 183.2 C 243 182.1 242.1 180.1 241 178.7 C 239.9 177.3 239 175.3 239 174.2 C 239 172.4 238.7 172.2 235.8 173.1 C 230.3 174.6 229.5 174.4 231.4 171.6 C 233 169.1 233 169.1 230.1 170.1 C 226.4 171.4 221.9 176 224.3 176 C 225.2 176 226 176.4 226 177 C 226 177.5 227.7 177.8 229.7 177.7 C 232.8 177.5 233.5 177.9 233.8 179.5 C 234 180.8 233.1 182.1 231 183.2 C 231 183.2 227.9 184.9 227.9 184.9 C 227.9 184.9 230.6 190 230.6 190 C 232 192.7 233.6 195.3 234.1 195.6 C 235.3 196.3 235.2 201.7 234 202.5 C 233.4 202.9 231.9 205.3 230.5 208 C 227 214.9 219.3 220.3 210.7 221.9 C 207.8 222.4 206.6 223.1 206.9 224.1 C 207.8 227.3 207.4 229.3 205.8 230.3 C 202.9 232.2 201.4 229.8 203.5 226.6 C 205.1 224.2 205.1 224 203.5 223.4 C 202.4 222.9 200.7 223.8 198.3 226.2 C 198.3 226.2 194.8 229.7 194.8 229.7 C 194.8 229.7 199.7 234.3 199.7 234.3 C 202.4 236.8 205.2 240.1 206 241.5 C 207.3 243.9 207.1 244.3 203.9 247.6 C 198.4 253.3 192 255.9 192 252.4 C 192 249.9 185.9 245 182.8 245 C 179.5 245 179 247.5 182 248.5 C 184.3 249.2 184.5 250.1 182.8 251.8 C 181.1 253.5 183.5 257.4 188.2 260.5 C 191.1 262.5 192 263.7 192 265.9 C 192 267.5 192.3 269.6 192.7 270.5 C 193.2 271.9 192.9 272.1 190.9 271.5 C 188.9 270.9 189.3 271.6 193 275.4 C 196.7 279.2 197.9 280 200 279.5 C 202 279.1 203.2 279.6 205 281.6 C 205 281.6 207.5 284.3 207.5 284.3 C 207.5 284.3 204.4 283.7 204.4 283.7 C 202.8 283.4 200.9 283 200.3 282.8 C 199.7 282.6 199.1 282.9 198.9 283.5 C 198.5 285.2 203.7 288.2 208.1 288.6 C 210.5 288.8 217.1 290.2 222.8 291.7 C 232.7 294.2 233.6 294.2 242.8 293.1 C 262.1 290.8 263.3 290.7 262.8 292.2 C 262.5 292.9 260.4 293.7 257.9 294 C 255.5 294.3 251.6 295.5 249.3 296.7 C 244.5 299.3 242.5 299.5 239.1 297.6 C 237.4 296.7 235.7 296.5 233.7 297.1 C 231.8 297.6 228.6 297.4 224.6 296.5 C 221.3 295.7 216.9 295 214.9 295 C 212.9 295 208.1 294.1 204.4 292.9 C 198.1 291 196.7 290 189.3 282.5 C 184.7 277.9 181 274.5 181 274.9 C 181 275.3 181.5 276.1 182.2 276.8 C 183.1 277.7 183 278 181.8 278 C 179.3 278 175.9 273.1 176.6 270.5 C 177.1 268.6 176.7 268.1 174.9 267.8 C 173.4 267.6 172.3 266.5 171.7 264.5 C 171.1 262.8 170.2 261.2 169.6 260.8 C 167.8 259.6 169.7 258.8 172.9 259.5 C 174.5 259.8 177.8 261.7 180.2 263.5 C 184.5 267 186.5 267.4 183.8 264.3 C 180.8 260.9 175.8 251 176.4 249.5 C 176.7 248.7 176.4 247.8 175.9 247.4 C 175.3 247.1 175.1 245.8 175.4 244.7 C 175.7 243.6 175.6 240.7 175.3 238.3 C 175.3 238.3 174.7 233.9 174.7 233.9 C 174.7 233.9 172.4 236.1 172.4 236.1 C 169.2 239.1 166.8 238 167.1 233.6 C 167.4 230.9 166.9 229.7 164.9 228.1 C 163.4 227 162 224.7 161.7 223 C 161.1 220.2 160.7 220 156.9 220 C 153 220 152.1 220.6 142.9 229.7 C 142.9 229.7 133 239.4 133 239.4 C 133 239.4 133 244.7 133 244.7 C 133 249.1 132.5 250.5 130.5 252.6 C 129.1 254 127.4 255 126.8 254.8 C 126.1 254.5 124.4 251.3 122.8 247.6 C 121.3 243.9 119 239.6 117.6 237.9 C 116.1 236.1 114.9 233.1 114.5 230.2 C 114.2 227.6 113.8 224.8 113.7 224 C 113.6 223.1 112.2 222.4 110 222.2 C 108.1 222 106.2 221.3 105.8 220.7 C 104.7 218.9 104.3 220 102.7 230 C 98.2 257.5 100.6 284.5 109.7 309 C 121.8 341.4 141.6 366.6 170 385.6 C 229.8 425.5 310.7 418.5 362.4 369 C 388.1 344.4 403.3 316.1 409.1 282.2 C 411.7 266.8 411.7 245.2 409.1 229.8 C 401.4 185.3 374.2 145.7 335.1 122.2 C 327.2 117.5 327 117.5 327 119.3 C 327 120 325.6 121.9 323.9 123.6 C 319.5 127.7 310.5 140 308.6 144.3 C 307.8 146.4 306.6 148 306.1 148 C 304.6 148 304.8 145.8 306.5 143.6 C 307.3 142.5 308 140.9 308 139.9 C 308 139 308.8 138 309.8 137.8 C 312.6 137 313.2 131 311.3 123.7 C 310.5 120.4 310 116 310.3 113.9 C 310.3 113.9 310.8 110.2 310.8 110.2 C 310.8 110.2 302.1 107.6 302.1 107.6 C 293.7 105.1 280.1 102 277.7 102 C 277 102.1 273.7 105.3 270.3 109.2 M 350.5 195.4 C 364.1 201.6 371.5 215.5 368.9 229.7 C 367.5 237.1 365.2 241.5 359.9 246.8 C 353 253.6 348.1 255.5 337.5 255.5 C 329.7 255.5 327.8 255.1 323.5 252.8 C 297 238.8 301.6 200.3 330.7 193 C 336.1 191.7 344.7 192.7 350.5 195.4 M 235.6 215.4 C 235.9 216.1 235.4 218.4 234.6 220.5 C 233.2 223.7 232.8 224 231.5 223 C 229.6 221.4 229.6 219 231.6 216.2 C 233.3 213.7 234.8 213.4 235.6 215.4 M 236.9 238.2 C 236.4 247.2 233.3 248.7 230.5 241.4 C 228.9 237 228.9 236.8 230.6 235 C 231.7 234 233.5 233.1 234.8 233.1 C 236.9 233 237.1 233.4 236.9 238.2 M 137.9 256.6 C 140.4 259.8 140.4 260 138.6 262.5 C 137.2 264.4 137.1 264.4 135.1 262.6 C 132.3 260 132.3 254 135.1 254 C 135.5 254 136.8 255.2 137.9 256.6 M 249.3 256.7 C 249.9 259.6 247.8 264 245.9 264 C 244.5 264 237.6 257.1 238.3 256.4 C 238.6 256.1 239.7 256.4 240.9 257.2 C 242.7 258.3 243.2 258.2 244.5 256.2 C 246.7 253.2 248.7 253.4 249.3 256.7 M 230.9 263.5 C 232.6 265.1 231.5 267 228.9 267 C 226.7 267 226.5 267.9 228.1 271.4 C 229 273.2 229 274.3 228.2 275.2 C 227.7 275.9 226.9 278.7 226.5 281.3 C 225.6 286.9 223.7 288.5 220 286.5 C 218.6 285.7 216.6 285.4 215.4 285.6 C 212.7 286.3 204 277 204 273.4 C 204 270.5 204.7 270.4 207.5 273 C 209.3 274.7 210.5 274.9 213.9 274.4 C 217.2 273.9 218 273.3 218 271.6 C 218 270.4 219.4 267.5 221.1 265.1 C 223.8 261.5 224.7 260.9 226.9 261.5 C 228.3 261.8 230.1 262.7 230.9 263.5 M 246.6 274.9 C 246.3 275.3 244 276.5 241.5 277.4 C 236.6 279.3 235.9 281.1 238.9 284.4 C 240.7 286.5 240.7 286.5 238 288.7 C 238 288.7 235.2 291 235.2 291 C 235.2 291 232.6 288.3 232.6 288.3 C 229.5 285.2 229.2 281.2 232 277.7 C 233.7 275.6 235.1 275 239.3 274.7 C 242.2 274.5 245.1 274.3 245.8 274.2 C 246.5 274.1 246.9 274.4 246.6 274.9 M 269.3 281.7 C 272.1 284.3 272.2 284.4 271.6 282.2 C 270.7 279.5 270.8 279.5 278.3 282.4 C 281.7 283.7 286.1 285.1 288.1 285.4 C 292.5 286.2 296.5 289.1 298.5 293 C 300.2 296.2 305.7 300 308.9 300 C 311.3 300 311.7 302.2 309.5 304 C 307.6 305.6 303.4 304.5 299.3 301.4 C 295.6 298.6 294.9 298.5 290.9 300.6 C 288.1 302 287.7 302 284.5 300 C 282.6 298.8 281 297.5 281 297 C 281 295.3 271.2 289 268.6 289 C 265.8 289 262 284.2 262 280.7 C 262 278.1 266 278.6 269.3 281.7 M 293 308.1 C 294.3 310.5 296.4 313.3 297.7 314.3 C 299.3 315.6 300 317.2 300 319.8 C 300 322.8 300.8 324.1 305.2 328.2 C 308.1 330.8 310.7 333 311.1 333 C 311.5 333 312.1 334.4 312.5 336.1 C 312.9 337.8 314.1 340.1 315.3 341.3 C 316.7 342.7 317.7 345.4 318.2 349.3 C 318.9 354.8 318.8 355.6 315.5 362.2 C 313.6 366.1 312.3 369.7 312.6 370.1 C 313.6 371.7 311.9 375 310.1 375 C 309.1 375 307.1 375.9 305.6 377.1 C 303.5 378.7 302.6 378.9 301.5 378 C 300.5 377.2 299.7 377.2 298.2 378.1 C 294.7 380.3 290 378.1 287.4 373.2 C 286.2 370.9 284.1 367.7 282.7 366.1 C 282.7 366.1 280.3 363.3 280.3 363.3 C 280.3 363.3 279.2 366.3 279.2 366.3 C 279.2 366.3 278 369.4 278 369.4 C 278 369.4 273.2 364.7 273.2 364.7 C 269.4 360.9 267.8 360 265 360 C 259.9 360 249.1 362.8 247.4 364.5 C 246.4 365.4 244 366 241.1 366 C 238 366 235.8 366.5 235 367.5 C 233.2 369.7 227.7 369.4 225.5 367 C 224.1 365.4 223.9 364.7 224.8 363.8 C 226.3 362.3 226.4 357.4 225 356.5 C 224.5 356.2 224 354.9 224 353.6 C 224 352.4 222.6 349.5 220.9 347.2 C 217.3 342.2 217.4 340.5 222.2 333.4 C 225.2 329 226 328.5 231.4 327.3 C 238.1 325.8 240 324.6 240 321.9 C 240 320.8 241 319.6 242.4 319 C 243.7 318.5 245.2 316.8 245.8 315.1 C 247.2 311.1 249.2 310.4 252.9 312.6 C 255.8 314.3 256.1 314.3 257.6 312.8 C 258.5 311.9 259.3 310 259.3 308.6 C 259.3 305 262 303.6 266.6 304.9 C 268.5 305.4 270.8 305.6 271.5 305.4 C 273.4 304.6 274.8 307.9 274.3 311.7 C 273.9 314.5 274.2 315.2 277 316.9 C 278.8 318 280.8 318.6 281.5 318.4 C 282.2 318.1 283 318.6 283.4 319.6 C 283.9 320.9 284.3 321 285.5 320 C 286.5 319.1 287 316.8 287 312.5 C 287 301.7 288.7 300.5 293 308.1 M 308.6 383.8 C 309.5 384.4 309.7 386.8 309.1 391.7 C 308.9 393.4 306.1 396 304.4 396 C 303.6 396 302 393.9 300.7 391.2 C 299.5 388.6 298.1 386.2 297.5 385.8 C 295.2 384.1 298.3 383.8 301.1 385.4 C 304.4 387.4 307.3 386.9 306.4 384.5 C 305.8 382.9 306.8 382.5 308.6 383.8 " fill="#000" fill-rule="nonzero" stroke="none" />
      </g>
      <clipPath id="cp071970">
         <rect x="0px" y="0px" width="512px" height="512px" />
      </clipPath>
      <g clip-path="url(#cp071970)">
         <path d="M 264.189 117.323 C 264.189 116.328 265.993 114.037 270.3 109.2 C 273.7 105.3 277 102.1 277.7 102 C 280.1 102 293.7 105.1 302.1 107.6 C 302.1 107.6 310.8 110.2 310.8 110.2 C 310.8 110.2 310.3 113.9 310.3 113.9 C 310.24 114.32 310.212 114.832 310.212 115.409 C 310.212 117.716 310.66 121.06 311.3 123.7 C 312.039 126.54 312.4 129.184 312.4 131.401 C 312.4 134.882 311.51 137.311 309.8 137.8 C 308.8 138 308 139 308 139.9 C 308 140.9 307.3 142.5 306.5 143.6 C 305.57 144.803 305.089 146.006 305.089 146.849 C 305.089 147.548 305.42 148 306.1 148 C 306.6 148 307.8 146.4 308.6 144.3 C 310.5 140 319.5 127.7 323.9 123.6 C 325.6 121.9 327 120 327 119.3 C 327 118.612 327.029 118.187 327.507 118.187 C 328.278 118.187 330.22 119.297 335.1 122.2 C 374.2 145.7 401.4 185.3 409.1 229.8 C 410.4 237.5 411.05 246.75 411.05 256 C 411.05 265.25 410.4 274.5 409.1 282.2 C 403.3 316.1 388.1 344.4 362.4 369 C 333.149 397.006 294.551 411.408 255.715 411.408 C 225.911 411.408 195.966 402.925 170 385.6 C 141.6 366.6 121.8 341.4 109.7 309 C 103.582 292.527 100.492 274.924 100.492 256.799 C 100.492 247.967 101.226 239.01 102.7 230 C 103.905 222.472 104.429 219.987 105.084 219.987 C 105.299 219.987 105.528 220.255 105.8 220.7 C 106.2 221.3 108.1 222 110 222.2 C 112.2 222.4 113.6 223.1 113.7 224 C 113.729 224.229 113.782 224.62 113.85 225.124 C 114.02 226.384 114.286 228.343 114.5 230.2 C 114.9 233.1 116.1 236.1 117.6 237.9 C 119 239.6 121.3 243.9 122.8 247.6 C 124.4 251.3 126.1 254.5 126.8 254.8 C 126.852 254.817 126.911 254.826 126.978 254.826 C 127.689 254.826 129.22 253.88 130.5 252.6 C 132.5 250.5 133 249.1 133 244.7 C 133 244.7 133 239.4 133 239.4 C 133 239.4 142.9 229.7 142.9 229.7 C 152.1 220.6 153 220 156.9 220 C 160.7 220 161.1 220.2 161.7 223 C 162 224.7 163.4 227 164.9 228.1 C 166.552 229.421 167.18 230.47 167.18 232.315 C 167.18 232.705 167.152 233.13 167.1 233.6 C 167.083 233.849 167.075 234.088 167.075 234.316 C 167.075 236.583 167.898 237.788 169.203 237.788 C 170.084 237.788 171.184 237.24 172.4 236.1 C 172.4 236.1 174.7 233.9 174.7 233.9 C 174.7 233.9 175.3 238.3 175.3 238.3 C 175.474 239.695 175.581 241.258 175.581 242.539 C 175.581 243.463 175.526 244.239 175.4 244.7 C 175.307 245.041 175.262 245.4 175.262 245.744 C 175.262 246.509 175.486 247.193 175.9 247.4 C 176.262 247.69 176.52 248.242 176.52 248.829 C 176.52 249.052 176.483 249.28 176.4 249.5 C 176.367 249.583 176.351 249.693 176.351 249.826 C 176.351 252.082 180.967 261.089 183.8 264.3 C 184.643 265.267 185.028 265.894 185.028 266.192 C 185.028 266.328 184.947 266.395 184.794 266.395 C 184.206 266.395 182.545 265.409 180.2 263.5 C 177.8 261.7 174.5 259.8 172.9 259.5 C 172.076 259.32 171.337 259.239 170.726 259.239 C 169.598 259.239 168.904 259.515 168.904 259.947 C 168.904 260.189 169.121 260.481 169.6 260.8 C 170.2 261.2 171.1 262.8 171.7 264.5 C 172.3 266.5 173.4 267.6 174.9 267.8 C 176.234 268.022 176.799 268.354 176.799 269.284 C 176.799 269.609 176.73 270.008 176.6 270.5 C 176.537 270.735 176.507 270.988 176.507 271.256 C 176.507 273.945 179.526 278 181.8 278 C 182.472 278 182.799 277.906 182.799 277.666 C 182.799 277.476 182.596 277.196 182.2 276.8 C 181.5 276.1 181 275.3 181 274.9 C 181 274.878 181.011 274.868 181.031 274.868 C 181.399 274.868 184.947 278.147 189.3 282.5 C 196.7 290 198.1 291 204.4 292.9 C 208.1 294.1 212.9 295 214.9 295 C 216.9 295 221.3 295.7 224.6 296.5 C 227.171 297.079 229.412 297.368 231.19 297.368 C 232.177 297.368 233.021 297.279 233.7 297.1 C 234.469 296.869 235.193 296.757 235.889 296.757 C 237.006 296.757 238.053 297.046 239.1 297.6 C 240.591 298.433 241.813 298.863 243.12 298.863 C 244.793 298.863 246.606 298.159 249.3 296.7 C 251.6 295.5 255.5 294.3 257.9 294 C 260.4 293.7 262.5 292.9 262.8 292.2 C 262.85 292.051 262.883 291.918 262.883 291.801 C 262.883 291.408 262.511 291.2 261.156 291.2 C 258.858 291.2 253.733 291.797 242.8 293.1 C 239.131 293.539 236.782 293.802 234.656 293.802 C 231.451 293.802 228.752 293.203 222.8 291.7 C 217.1 290.2 210.5 288.8 208.1 288.6 C 203.861 288.215 198.878 285.415 198.878 283.691 C 198.878 283.626 198.885 283.562 198.9 283.5 C 199.058 283.025 199.467 282.738 199.928 282.738 C 200.05 282.738 200.175 282.758 200.3 282.8 C 200.9 283 202.8 283.4 204.4 283.7 C 204.4 283.7 207.5 284.3 207.5 284.3 C 207.5 284.3 205 281.6 205 281.6 C 203.574 280.016 202.525 279.373 201.156 279.373 C 200.797 279.373 200.416 279.417 200 279.5 C 199.637 279.586 199.301 279.634 198.975 279.634 C 197.411 279.634 196.061 278.543 193 275.4 C 190.737 273.076 189.708 271.911 189.708 271.495 C 189.708 271.368 189.804 271.31 189.988 271.31 C 190.189 271.31 190.495 271.378 190.9 271.5 C 191.59 271.707 192.078 271.819 192.401 271.819 C 192.759 271.819 192.912 271.681 192.912 271.382 C 192.912 271.171 192.836 270.88 192.7 270.5 C 192.3 269.6 192 267.5 192 265.9 C 192 263.7 191.1 262.5 188.2 260.5 C 184.523 258.075 182.254 255.16 182.254 253.192 C 182.254 252.644 182.43 252.17 182.8 251.8 C 183.543 251.057 183.923 250.466 183.923 249.978 C 183.923 249.351 183.294 248.894 182 248.5 C 180.654 248.051 180.012 247.301 180.012 246.609 C 180.012 245.76 180.981 245 182.8 245 C 185.9 245 192 249.9 192 252.4 C 192 253.487 192.618 253.986 193.634 253.986 C 195.889 253.986 200.108 251.53 203.9 247.6 C 205.928 245.509 206.751 244.582 206.751 243.573 C 206.751 242.99 206.476 242.379 206 241.5 C 205.2 240.1 202.4 236.8 199.7 234.3 C 199.7 234.3 194.8 229.7 194.8 229.7 C 194.8 229.7 198.3 226.2 198.3 226.2 C 200.274 224.226 201.775 223.267 202.857 223.267 C 203.091 223.267 203.305 223.311 203.5 223.4 C 204.3 223.7 204.7 223.9 204.7 224.325 C 204.7 224.75 204.3 225.4 203.5 226.6 C 202.82 227.636 202.518 228.588 202.518 229.337 C 202.518 230.335 203.054 230.974 203.95 230.974 C 204.461 230.974 205.088 230.766 205.8 230.3 C 206.839 229.651 207.372 228.581 207.372 227.034 C 207.372 226.198 207.216 225.223 206.9 224.1 C 206.87 224.001 206.855 223.904 206.855 223.811 C 206.855 222.963 208.088 222.35 210.7 221.9 C 219.3 220.3 227 214.9 230.5 208 C 231.9 205.3 233.4 202.9 234 202.5 C 234.625 202.083 234.952 200.419 234.952 198.821 C 234.952 197.35 234.675 195.935 234.1 195.6 C 233.6 195.3 232 192.7 230.6 190 C 230.6 190 227.9 184.9 227.9 184.9 C 227.9 184.9 231 183.2 231 183.2 C 232.91 182.2 233.827 181.034 233.827 179.853 C 233.827 179.735 233.818 179.618 233.8 179.5 C 233.546 178.148 233.007 177.653 230.974 177.653 C 230.602 177.653 230.18 177.669 229.7 177.7 C 229.442 177.713 229.188 177.719 228.943 177.719 C 227.289 177.719 226 177.435 226 177 C 226 176.4 225.2 176 224.3 176 C 223.832 176 223.626 175.825 223.626 175.533 C 223.626 174.33 227.122 171.146 230.1 170.1 C 231.224 169.713 231.912 169.475 232.24 169.475 C 232.398 169.475 232.473 169.53 232.473 169.65 C 232.473 169.923 232.082 170.535 231.4 171.6 C 230.801 172.482 230.471 173.106 230.471 173.5 C 230.471 173.858 230.743 174.026 231.334 174.026 C 232.159 174.026 233.605 173.699 235.8 173.1 C 236.893 172.761 237.616 172.578 238.094 172.578 C 238.883 172.578 239 173.078 239 174.2 C 239 175.3 239.9 177.3 241 178.7 C 242.1 180.1 243 182.1 243 183.2 C 243 184.3 243.5 186 244 187.1 C 244.559 188.032 245.003 188.462 245.619 188.462 C 245.993 188.462 246.432 188.303 247 188 C 248.1 187.4 249 185.9 249 184.7 C 249 183.5 249.4 181.9 249.9 181.1 C 250.096 180.773 250.196 180.359 250.196 179.861 C 250.196 178.836 249.774 177.449 248.9 175.7 C 248.09 174.158 247.697 172.808 247.697 171.733 C 247.697 170.019 248.695 169 250.6 169 C 251.4 169 252.2 167.8 252.6 166.2 C 253.512 161.973 253.805 161.112 255.929 161.112 C 256.367 161.112 256.884 161.149 257.5 161.2 C 257.663 161.21 257.826 161.215 257.988 161.215 C 261.099 161.215 263.993 159.372 267.7 155 C 270.8 151.3 274.5 144 276.1 138.5 C 276.1 138.5 277.8 132.5 277.8 132.5 C 277.8 132.5 278.5 138.2 278.5 138.2 C 278.689 139.711 278.788 141.467 278.788 143.11 C 278.788 144.948 278.664 146.644 278.4 147.7 C 278.042 149.578 277.684 151.697 277.684 152.695 C 277.684 152.813 277.689 152.916 277.7 153 C 277.709 153.069 277.713 153.14 277.713 153.212 C 277.713 153.969 277.248 154.843 276.7 155.3 C 276.332 155.505 276.148 155.726 276.148 155.984 C 276.148 156.358 276.532 156.809 277.3 157.4 C 278.418 158.273 278.925 159.342 278.925 160.362 C 278.925 162.264 277.163 164 274.3 164 C 272.829 164 272.03 164.768 272.03 165.689 C 272.03 166.395 272.501 167.192 273.5 167.8 C 274.4 168.2 275.3 170.2 275.6 172.1 C 275.716 172.819 275.789 173.398 275.789 173.892 C 275.789 175.529 274.988 176.233 272.3 178 C 270.2 179.4 267.5 181.6 266.2 183 C 265.154 184.112 264.407 184.667 263.903 184.667 C 263.637 184.667 263.438 184.512 263.3 184.2 C 262.961 183.409 262.423 183.029 261.799 183.029 C 260.766 183.029 259.497 184.068 258.5 186 C 257.6 187.6 256.3 189 255.5 189 C 253.9 189 252 192 252 194.4 C 252 195.2 252.7 196.6 253.6 197.5 C 254.306 198.206 254.746 198.579 255.222 198.579 C 255.759 198.579 256.341 198.106 257.4 197.1 C 258.6 195.9 260.3 195 261.1 195 C 261.9 195 264.4 194.1 266.8 193 C 270.7 191.2 271 190.8 271 187.2 C 271 184.36 271.059 183.641 272.352 183.641 C 272.744 183.641 273.249 183.707 273.9 183.8 C 274.212 183.833 274.511 183.85 274.797 183.85 C 276.247 183.85 277.348 183.419 278.1 182.5 C 278.9 181.5 280.7 179.5 282.3 178 C 284.06 176.183 284.885 175.075 284.885 174.128 C 284.885 173.406 284.408 172.778 283.5 172 C 282.623 171.292 282.144 170.64 282.144 169.911 C 282.144 168.479 283.992 166.749 288.3 163.7 C 294.079 159.508 297.802 156.083 297.802 155.32 C 297.802 155.215 297.732 155.161 297.589 155.161 C 297.13 155.161 295.913 155.721 293.8 157 C 291.675 158.264 289.087 158.934 286.929 158.934 C 285.33 158.934 283.966 158.566 283.2 157.8 C 282.411 157.011 282.01 155.725 282.01 154.682 C 282.01 153.742 282.336 153 283 153 C 283.684 153 284.002 152.525 284.002 151.864 C 284.002 150.978 283.431 149.759 282.4 148.9 C 281.776 148.401 281.447 148.058 281.447 147.683 C 281.447 147.157 282.098 146.569 283.5 145.4 C 283.5 145.4 286.2 143.3 286.2 143.3 C 286.2 143.3 284 134.4 284 134.4 C 282.06 126.562 280.963 123.181 280.195 123.181 C 279.973 123.181 279.779 123.463 279.6 124 C 279.496 124.417 279.256 125.16 278.979 126.017 C 278.724 126.804 278.439 127.686 278.2 128.5 C 278.2 128.5 277.2 131.5 277.2 131.5 C 277.2 131.5 277.1 127.9 277.1 127.9 C 277.01 124.052 274.039 120.445 271.408 120.445 C 271.099 120.445 270.795 120.495 270.5 120.6 C 270.179 120.746 269.866 120.815 269.57 120.815 C 268.85 120.815 268.225 120.408 267.8 119.7 C 267.3 118.7 266.2 118 265.5 118 C 264.656 118 264.189 117.829 264.189 117.323 M 369.416 224.052 C 369.416 211.929 362.286 200.773 350.5 195.4 C 346.404 193.494 340.913 192.435 336.137 192.435 C 334.15 192.435 332.287 192.618 330.7 193 C 314.616 197.035 306.016 210.602 306.016 224.295 C 306.016 235.375 311.647 246.538 323.5 252.8 C 327.8 255.1 329.7 255.5 337.5 255.5 C 348.1 255.5 353 253.6 359.9 246.8 C 365.2 241.5 367.5 237.1 368.9 229.7 C 369.247 227.806 369.416 225.917 369.416 224.052 M 235.688 215.998 C 235.688 215.744 235.66 215.54 235.6 215.4 C 235.249 214.522 234.763 214.087 234.184 214.087 C 233.445 214.087 232.554 214.798 231.6 216.2 C 230.587 217.618 230.087 218.933 230.087 220.094 C 230.087 221.226 230.562 222.21 231.5 223 C 231.917 223.321 232.242 223.508 232.537 223.508 C 233.16 223.508 233.65 222.672 234.6 220.5 C 235.24 218.82 235.688 217.012 235.688 215.998 M 234.035 246.039 C 235.479 246.039 236.614 243.345 236.9 238.2 C 236.937 237.31 236.96 236.571 236.96 235.958 C 236.96 233.523 236.591 233.088 235.252 233.088 C 235.112 233.088 234.962 233.092 234.8 233.1 C 233.5 233.1 231.7 234 230.6 235 C 229.737 235.914 229.312 236.415 229.312 237.263 C 229.312 238.085 229.712 239.233 230.5 241.4 C 231.699 244.527 232.954 246.039 234.035 246.039 M 139.873 259.998 C 139.873 259.184 139.252 258.331 137.9 256.6 C 136.8 255.2 135.5 254 135.1 254 C 133.7 254 133 255.5 133 257.325 C 133 259.15 133.7 261.3 135.1 262.6 C 136.087 263.488 136.611 263.938 137.057 263.938 C 137.515 263.938 137.891 263.463 138.6 262.5 C 139.426 261.352 139.873 260.69 139.873 259.998 M 249.404 257.786 C 249.404 257.409 249.371 257.044 249.3 256.7 C 248.983 254.958 248.277 254.08 247.357 254.08 C 246.533 254.08 245.539 254.783 244.5 256.2 C 243.732 257.381 243.244 257.9 242.601 257.9 C 242.156 257.9 241.637 257.65 240.9 257.2 C 240.006 256.604 239.168 256.286 238.675 256.286 C 238.506 256.286 238.377 256.323 238.3 256.4 C 238.266 256.434 238.25 256.482 238.25 256.542 C 238.25 257.747 244.567 264 245.9 264 C 247.575 264 249.404 260.582 249.404 257.786 M 231.715 265.097 C 231.715 264.584 231.459 264.026 230.9 263.5 C 230.1 262.7 228.3 261.8 226.9 261.5 C 226.427 261.371 226.013 261.297 225.629 261.297 C 224.229 261.297 223.219 262.275 221.1 265.1 C 219.4 267.5 218 270.4 218 271.6 C 218 273.3 217.2 273.9 213.9 274.4 C 212.866 274.552 212.035 274.639 211.329 274.639 C 209.714 274.639 208.752 274.183 207.5 273 C 206.164 271.759 205.306 271.133 204.774 271.133 C 204.191 271.133 204 271.884 204 273.4 C 204 276.87 212.085 285.637 215.086 285.637 C 215.198 285.637 215.303 285.625 215.4 285.6 C 215.64 285.56 215.912 285.54 216.205 285.54 C 217.376 285.54 218.88 285.86 220 286.5 C 221.012 287.047 221.89 287.325 222.649 287.325 C 224.665 287.325 225.846 285.368 226.5 281.3 C 226.9 278.7 227.7 275.9 228.2 275.2 C 228.588 274.763 228.788 274.279 228.788 273.691 C 228.788 273.067 228.563 272.327 228.1 271.4 C 227.406 269.881 227.05 268.852 227.05 268.173 C 227.05 267.288 227.655 267 228.9 267 C 230.645 267 231.715 266.144 231.715 265.097 M 241.5 277.4 C 244 276.5 246.3 275.3 246.6 274.9 C 246.669 274.785 246.701 274.681 246.701 274.59 C 246.701 274.335 246.45 274.181 246.055 274.181 C 245.976 274.181 245.89 274.187 245.8 274.2 C 245.1 274.3 242.2 274.5 239.3 274.7 C 235.1 275 233.7 275.6 232 277.7 C 230.707 279.317 230.075 281.04 230.075 282.732 C 230.075 284.703 230.932 286.632 232.6 288.3 C 232.6 288.3 235.2 291 235.2 291 C 235.2 291 238 288.7 238 288.7 C 239.486 287.489 240.155 286.945 240.155 286.349 C 240.155 285.864 239.709 285.344 238.9 284.4 C 237.715 283.097 237.108 282.028 237.108 281.094 C 237.108 279.663 238.535 278.55 241.5 277.4 M 269.336 281.734 C 269.324 281.722 269.312 281.711 269.3 281.7 C 267.434 279.947 265.344 279.026 263.881 279.026 C 262.755 279.026 262 279.57 262 280.7 C 262 284.2 265.8 289 268.6 289 C 271.2 289 281 295.3 281 297 C 281 297.5 282.6 298.8 284.5 300 C 286.242 301.089 287.154 301.585 288.076 301.585 C 288.847 301.585 289.625 301.238 290.9 300.6 C 292.715 299.647 293.851 299.147 294.896 299.147 C 296.153 299.147 297.279 299.871 299.3 301.4 C 302.135 303.543 305.017 304.73 307.154 304.73 C 308.108 304.73 308.913 304.494 309.5 304 C 310.481 303.197 310.945 302.315 310.945 301.583 C 310.945 300.675 310.229 300 308.9 300 C 305.7 300 300.2 296.2 298.5 293 C 296.5 289.1 292.5 286.2 288.1 285.4 C 286.1 285.1 281.7 283.7 278.3 282.4 C 274.483 280.924 272.583 280.199 271.755 280.199 C 271.364 280.199 271.212 280.362 271.212 280.684 C 271.212 281.019 271.375 281.525 271.6 282.2 C 271.78 282.86 271.897 283.313 271.897 283.554 C 271.897 283.689 271.86 283.757 271.776 283.757 C 271.515 283.757 270.799 283.092 269.336 281.734 M 297.7 314.3 C 296.4 313.3 294.3 310.5 293 308.1 C 291.178 304.88 289.823 303.24 288.866 303.24 C 287.565 303.24 287 306.276 287 312.5 C 287 316.8 286.5 319.1 285.5 320 C 284.965 320.445 284.589 320.673 284.293 320.673 C 283.924 320.673 283.677 320.321 283.4 319.6 C 283.078 318.795 282.496 318.313 281.916 318.313 C 281.776 318.313 281.636 318.342 281.5 318.4 C 281.41 318.426 281.299 318.438 281.17 318.438 C 280.291 318.438 278.569 317.859 277 316.9 C 274.822 315.578 274.157 314.861 274.157 313.289 C 274.157 312.841 274.211 312.322 274.3 311.7 C 274.369 311.173 274.402 310.656 274.402 310.158 C 274.402 307.43 273.419 305.279 272.065 305.279 C 271.883 305.279 271.694 305.318 271.5 305.4 C 271.319 305.452 271.031 305.477 270.672 305.477 C 269.638 305.477 268.009 305.271 266.6 304.9 C 265.467 304.58 264.449 304.423 263.558 304.423 C 260.834 304.423 259.3 305.887 259.3 308.6 C 259.3 310 258.5 311.9 257.6 312.8 C 256.873 313.526 256.428 313.901 255.833 313.901 C 255.199 313.901 254.395 313.477 252.9 312.6 C 251.531 311.786 250.395 311.369 249.436 311.369 C 247.803 311.369 246.682 312.579 245.8 315.1 C 245.2 316.8 243.7 318.5 242.4 319 C 241 319.6 240 320.8 240 321.9 C 240 324.6 238.1 325.8 231.4 327.3 C 226 328.5 225.2 329 222.2 333.4 C 219.599 337.247 218.378 339.509 218.378 341.569 C 218.378 343.311 219.251 344.909 220.9 347.2 C 222.6 349.5 224 352.4 224 353.6 C 224 354.9 224.5 356.2 225 356.5 C 225.664 356.927 225.99 358.253 225.99 359.689 C 225.99 361.282 225.589 363.011 224.8 363.8 C 224.438 364.161 224.254 364.491 224.254 364.859 C 224.254 365.408 224.662 366.043 225.5 367 C 226.695 368.304 228.865 368.988 230.886 368.988 C 232.584 368.988 234.178 368.505 235 367.5 C 235.8 366.5 238 366 241.1 366 C 244 366 246.4 365.4 247.4 364.5 C 249.1 362.8 259.9 360 265 360 C 267.8 360 269.4 360.9 273.2 364.7 C 273.2 364.7 278 369.4 278 369.4 C 278 369.4 279.2 366.3 279.2 366.3 C 279.2 366.3 280.3 363.3 280.3 363.3 C 280.3 363.3 282.7 366.1 282.7 366.1 C 284.1 367.7 286.2 370.9 287.4 373.2 C 289.315 376.809 292.37 378.954 295.245 378.954 C 296.273 378.954 297.278 378.679 298.2 378.1 C 298.972 377.637 299.559 377.412 300.083 377.412 C 300.577 377.412 301.015 377.612 301.5 378 C 301.927 378.35 302.325 378.533 302.774 378.533 C 303.48 378.533 304.316 378.078 305.6 377.1 C 307.1 375.9 309.1 375 310.1 375 C 311.53 375 312.897 372.917 312.897 371.259 C 312.897 370.829 312.805 370.429 312.6 370.1 C 312.571 370.061 312.557 369.993 312.557 369.897 C 312.557 369.001 313.784 365.723 315.5 362.2 C 317.806 357.589 318.549 355.809 318.549 353.279 C 318.549 352.188 318.411 350.957 318.2 349.3 C 317.7 345.4 316.7 342.7 315.3 341.3 C 314.1 340.1 312.9 337.8 312.5 336.1 C 312.1 334.4 311.5 333 311.1 333 C 310.7 333 308.1 330.8 305.2 328.2 C 300.8 324.1 300 322.8 300 319.8 C 300 317.2 299.3 315.6 297.7 314.3 M 309.443 387.119 C 309.443 385.221 309.154 384.169 308.6 383.8 C 307.868 383.271 307.268 383.024 306.855 383.024 C 306.452 383.024 306.226 383.259 306.226 383.697 C 306.226 383.916 306.282 384.184 306.4 384.5 C 306.513 384.801 306.566 385.072 306.566 385.312 C 306.566 386.18 305.873 386.641 304.804 386.641 C 303.81 386.641 302.49 386.243 301.1 385.4 C 299.847 384.684 298.534 384.349 297.672 384.349 C 297.078 384.349 296.698 384.508 296.698 384.811 C 296.698 385.052 296.938 385.384 297.5 385.8 C 298.1 386.2 299.5 388.6 300.7 391.2 C 302 393.9 303.6 396 304.4 396 C 306.1 396 308.9 393.4 309.1 391.7 C 309.33 389.817 309.443 388.304 309.443 387.119 " fill="#007100" fill-rule="evenodd" stroke="none" />
      </g>
      <clipPath id="cp071971">
         <rect x="0px" y="0px" width="512px" height="512px" />
      </clipPath>
      <g clip-path="url(#cp071971)">
         <path d="M 332.3 196 C 323.7 197.8 315.4 204.2 311.5 212 C 308.9 217.1 308.4 227.6 310.4 233.8 C 313.9 244.4 324.1 252.1 335.7 252.8 C 358.2 254.3 373.1 231.4 362.9 211.1 C 357.3 199.8 344.5 193.5 332.3 196 M 344.4 204.1 C 352.1 206.2 359 216 359 224.9 C 359 233.1 351.8 242.1 343.2 244.6 C 335.9 246.8 329.7 245.2 323.5 239.8 C 312.3 229.9 314.6 212.4 328.1 205.6 C 333.8 202.8 338.2 202.4 344.4 204.1 " fill="#000" fill-rule="nonzero" stroke="none" />
      </g>
      <clipPath id="cp071972">
         <rect x="0px" y="0px" width="512px" height="512px" />
      </clipPath>
      <g clip-path="url(#cp071972)">
         <path d="M 330.4 208.9 C 324.5 211.6 321.7 216.1 321.2 223.5 C 320.9 228.5 321.2 230.1 323.2 233 C 328.5 240.8 337.6 243.3 345.9 239 C 358.1 232.8 357.2 214.7 344.6 208.9 C 339.4 206.6 335.6 206.6 330.4 208.9 M 344.1 217.9 C 348.8 222.7 347.5 229.6 341.3 232.5 C 336 235 329.8 231.9 328.5 225.9 C 326.6 217.3 337.7 211.5 344.1 217.9 " fill="#000" fill-rule="nonzero" stroke="none" />
      </g>
   </g>
</svg>