<?xml version="1.0" standalone="no"?>
<!DOCTYPE svg PUBLIC "-//W3C//DTD SVG 20010904//EN"
   "http://www.w3.org/TR/2001/REC-SVG-20010904/DTD/svg10.dtd">

<svg xmlns="http://www.w3.org/2000/svg" xmlns:xlink="http://www.w3.org/1999/xlink" width="612px" height="792px">
   <g id="cvpage1_top" width="612px" height="792px" transform="translate(0,0)">
      <clipPath id="cp071963">
         <rect x="0px" y="0px" width="640px" height="512px" />
      </clipPath>
      <g clip-path="url(#cp071963)">
         <path d="M 224 0 C 294.645 0 352 57.355 352 128 C 352 198.645 294.645 256 224 256 C 224 256 224 256 224 256 C 153.355 256 96 198.645 96 128 C 96 57.355 153.355 0 224 0 C 224 0 224 0 224 0 M 178.3 304 C 178.3 304 269.7 304 269.7 304 C 281.5 304 293.1 305.2 304.2 307.3 C 302.1 325.8 311.6 342.9 326 352.1 C 309.4 362.7 299.3 383.7 306 405.4 C 310 418.3 315.4 430.9 322.4 443 C 329.4 455.1 337.6 466.1 346.8 476 C 362.5 492.9 386.4 494.4 404 484.7 C 404 484.7 404 485.6 404 485.6 C 404 494.8 406.7 504.1 411.9 511.9 C 411.9 511.9 29.7 511.9 29.7 511.9 C 13.3 512 0 498.7 0 482.3 C 0 383.8 79.8 304 178.3 304 M 436 218.2 C 436 211.2 440.5 204.9 447.3 203.4 C 457.8 201 468.8 199.7 480 199.7 C 491.2 199.7 502.2 201 512.7 203.4 C 519.5 204.9 524 211.2 524 218.2 C 524 218.2 524 248.8 524 248.8 C 531.9 252.2 539.4 256.5 546.3 261.6 C 546.3 261.6 571.2 247.3 571.2 247.3 C 577.3 243.8 584.9 244.6 589.7 249.7 C 597.3 257.8 604 266.9 609.8 276.9 C 615.6 286.9 620.1 297.3 623.3 307.9 C 625.4 314.6 622.2 321.6 616.1 325.1 C 616.1 325.1 591.1 339.5 591.1 339.5 C 591.5 343.5 591.8 347.6 591.8 351.8 C 591.8 356 591.6 360 591.1 364.1 C 591.1 364.1 616.1 378.5 616.1 378.5 C 622.2 382 625.3 389 623.3 395.7 C 620 406.3 615.5 416.7 609.8 426.7 C 604.1 436.7 597.3 445.8 589.7 453.9 C 584.9 459 577.2 459.8 571.2 456.3 C 571.2 456.3 546.3 442 546.3 442 C 539.4 447.1 532 451.4 524 454.8 C 524 454.8 524 485.4 524 485.4 C 524 492.4 519.5 498.7 512.7 500.2 C 502.2 502.6 491.2 503.9 480 503.9 C 468.8 503.9 457.8 502.6 447.3 500.2 C 440.5 498.7 436 492.4 436 485.4 C 436 485.4 436 454.8 436 454.8 C 428 451.4 420.4 447.1 413.5 441.9 C 413.5 441.9 388.8 456.2 388.8 456.2 C 382.7 459.7 375.1 458.9 370.3 453.8 C 362.7 445.7 356 436.6 350.2 426.6 C 344.4 416.6 339.9 406.2 336.7 395.6 C 334.6 388.9 337.8 381.9 343.9 378.4 C 343.9 378.4 368.7 364.1 368.7 364.1 C 368.3 360 368 355.9 368 351.7 C 368 347.5 368.2 343.4 368.7 339.3 C 368.7 339.3 343.8 325 343.8 325 C 337.7 321.5 334.6 314.5 336.6 307.8 C 339.9 297.2 344.3 286.8 350.1 276.8 C 355.9 266.8 362.6 257.7 370.2 249.6 C 375 244.5 382.6 243.7 388.7 247.2 C 388.7 247.2 413.5 261.5 413.5 261.5 C 420.4 256.4 428 252.1 436 248.6 C 436 248.6 436 218.2 436 218.2 M 528.1 351.7 C 528.17 350.16 528.17 348.854 528.1 347.315 C 526.89 320.795 504.377 300.247 477.857 301.457 C 451.338 302.668 430.79 325.18 432 351.7 C 431.93 353.24 431.93 354.546 432 356.085 C 433.21 382.605 455.723 403.153 482.243 401.943 C 508.762 400.733 529.31 378.219 528.1 351.7 " fill="#000" fill-rule="nonzero" stroke="none" />
      </g>
      <clipPath id="cp071964">
         <rect x="0px" y="0px" width="640px" height="512px" />
      </clipPath>
      <g clip-path="url(#cp071964)">
         <path d="M 436 218.2 C 436 211.2 440.5 204.9 447.3 203.4 C 457.8 201 468.8 199.7 480 199.7 C 491.2 199.7 502.2 201 512.7 203.4 C 519.5 204.9 524 211.2 524 218.2 C 524 218.2 524 248.8 524 248.8 C 531.9 252.2 539.4 256.5 546.3 261.6 C 546.3 261.6 571.2 247.3 571.2 247.3 C 573.683 245.876 576.413 245.163 579.103 245.163 C 583.022 245.163 586.853 246.676 589.7 249.7 C 597.3 257.8 604 266.9 609.8 276.9 C 615.6 286.9 620.1 297.3 623.3 307.9 C 623.736 309.293 623.944 310.699 623.944 312.084 C 623.944 317.359 620.932 322.328 616.1 325.1 C 616.1 325.1 591.1 339.5 591.1 339.5 C 591.5 343.5 591.8 347.6 591.8 351.8 C 591.8 356 591.6 360 591.1 364.1 C 591.1 364.1 616.1 378.5 616.1 378.5 C 620.951 381.284 623.905 386.281 623.905 391.58 C 623.905 392.944 623.709 394.328 623.3 395.7 C 620 406.3 615.5 416.7 609.8 426.7 C 604.1 436.7 597.3 445.8 589.7 453.9 C 586.853 456.924 582.987 458.437 579.06 458.437 C 576.365 458.437 573.642 457.724 571.2 456.3 C 571.2 456.3 546.3 442 546.3 442 C 539.4 447.1 532 451.4 524 454.8 C 524 454.8 524 485.4 524 485.4 C 524 492.4 519.5 498.7 512.7 500.2 C 502.2 502.6 491.2 503.9 480 503.9 C 468.8 503.9 457.8 502.6 447.3 500.2 C 440.5 498.7 436 492.4 436 485.4 C 436 485.4 436 454.8 436 454.8 C 428 451.4 420.4 447.1 413.5 441.9 C 413.5 441.9 388.8 456.2 388.8 456.2 C 386.317 457.624 383.587 458.337 380.897 458.337 C 376.978 458.337 373.147 456.824 370.3 453.8 C 362.7 445.7 356 436.6 350.2 426.6 C 344.4 416.6 339.9 406.2 336.7 395.6 C 336.264 394.207 336.056 392.801 336.056 391.416 C 336.056 386.141 339.068 381.172 343.9 378.4 C 343.9 378.4 368.7 364.1 368.7 364.1 C 368.3 360 368 355.9 368 351.7 C 368 347.5 368.2 343.4 368.7 339.3 C 368.7 339.3 343.8 325 343.8 325 C 338.949 322.216 335.995 317.219 335.995 311.92 C 335.995 310.556 336.191 309.172 336.6 307.8 C 339.9 297.2 344.3 286.8 350.1 276.8 C 355.9 266.8 362.6 257.7 370.2 249.6 C 373.047 246.576 376.878 245.063 380.797 245.063 C 383.486 245.063 386.217 245.776 388.7 247.2 C 388.7 247.2 413.5 261.5 413.5 261.5 C 420.4 256.4 428 252.1 436 248.6 C 436 248.6 436 218.2 436 218.2 M 528.1 351.7 C 528.135 350.93 528.153 350.219 528.153 349.507 C 528.153 348.796 528.135 348.085 528.1 347.315 C 526.924 321.54 505.625 301.407 480.083 301.407 C 479.344 301.407 478.603 301.423 477.857 301.457 C 452.083 302.634 431.949 323.932 431.949 349.475 C 431.949 350.213 431.966 350.955 432 351.7 C 431.965 352.47 431.947 353.181 431.947 353.893 C 431.947 354.604 431.965 355.315 432 356.085 C 433.176 381.86 454.475 401.993 480.017 401.993 C 480.756 401.993 481.498 401.977 482.243 401.943 C 508.017 400.766 528.151 379.468 528.151 353.925 C 528.151 353.187 528.134 352.445 528.1 351.7 " fill="#AAA" fill-rule="evenodd" stroke="none" />
      </g>
      <clipPath id="cp071965">
         <rect x="0px" y="0px" width="640px" height="512px" />
      </clipPath>
      <g clip-path="url(#cp071965)">
         <path d="M 178.3 304 C 178.3 304 269.7 304 269.7 304 C 281.5 304 293.1 305.2 304.2 307.3 C 304.005 309.021 303.91 310.73 303.91 312.421 C 303.91 328.913 312.939 343.756 326 352.1 C 312.942 360.438 303.906 375.212 303.906 391.7 C 303.906 396.172 304.57 400.77 306 405.4 C 310 418.3 315.4 430.9 322.4 443 C 329.4 455.1 337.6 466.1 346.8 476 C 356.178 486.095 368.483 490.695 380.623 490.695 C 388.806 490.695 396.913 488.606 404 484.7 C 404 484.7 404 485.6 404 485.6 C 404 494.8 406.7 504.1 411.9 511.9 C 411.9 511.9 29.7 511.9 29.7 511.9 C 29.639 511.9 29.578 511.901 29.516 511.901 C 13.201 511.901 0 498.639 0 482.3 C 0 383.8 79.8 304 178.3 304 " fill="#389CFF" fill-rule="evenodd" stroke="none" />
      </g>
      <clipPath id="cp071966">
         <rect x="0px" y="0px" width="640px" height="512px" />
      </clipPath>
      <g clip-path="url(#cp071966)">
         <path d="M 224 0 C 294.645 0 352 57.355 352 128 C 352 198.645 294.645 256 224 256 C 153.355 256 96 198.645 96 128 C 96 57.355 153.355 0 224 0 " fill="#389CFF" fill-rule="evenodd" stroke="none" />
      </g>
   </g>
</svg>