<?xml version="1.0" standalone="no"?>
<!DOCTYPE svg PUBLIC "-//W3C//DTD SVG 20010904//EN"
   "http://www.w3.org/TR/2001/REC-SVG-20010904/DTD/svg10.dtd">

<svg xmlns="http://www.w3.org/2000/svg" xmlns:xlink="http://www.w3.org/1999/xlink" viewBox="0 0 512 512" width="30" height="20">
   <g id="cvpage1_top" width="612px" height="792px" transform="translate(0,0)">
      <clipPath id="cp0719AB">
         <rect x="0px" y="0px" width="612px" height="792px" />
      </clipPath>
      <g clip-path="url(#cp0719AB)">
         <path d="M 367.7 161.5 C 367.7 161.5 503.3 197.8 503.3 197.8 C 509.8 199.6 514.6 205.2 515.1 212 C 515.1 212 519.7 268.5 519.7 268.5 C 519.7 268.5 318.2 214.5 318.2 214.5 C 318.2 214.5 350.4 167.9 350.4 167.9 C 353.409 163.465 358.426 160.975 363.611 160.975 C 364.974 160.975 366.348 161.146 367.7 161.5 " fill="#389CFF" fill-rule="evenodd" stroke="none" />
      </g>
      <clipPath id="cp0719AC">
         <rect x="0px" y="0px" width="612px" height="792px" />
      </clipPath>
      <g clip-path="url(#cp0719AC)">
         <path d="M 367.7 161.5 C 367.7 161.5 503.3 197.8 503.3 197.8 C 509.8 199.6 514.6 205.2 515.1 212 C 515.1 212 519.7 268.5 519.7 268.5 C 519.7 268.5 318.2 214.5 318.2 214.5 C 318.2 214.5 350.4 167.9 350.4 167.9 C 353.409 163.465 358.426 160.975 363.611 160.975 C 364.974 160.975 366.348 161.146 367.7 161.5 " fill="#71B8FF" fill-rule="evenodd" stroke="none" />
      </g>
      <clipPath id="cp0719AD">
         <rect x="0px" y="0px" width="612px" height="792px" />
      </clipPath>
      <g clip-path="url(#cp0719AD)">
         <path d="M 367.7 161.5 C 367.7 161.5 503.3 197.8 503.3 197.8 C 509.8 199.6 514.6 205.2 515.1 212 C 515.1 212 519.7 268.5 519.7 268.5 C 519.7 268.5 318.2 214.5 318.2 214.5 C 318.2 214.5 350.4 167.9 350.4 167.9 C 353.409 163.465 358.426 160.975 363.611 160.975 C 364.974 160.975 366.348 161.146 367.7 161.5 " fill="#AAD5FF" fill-rule="evenodd" stroke="none" />
      </g>
      <clipPath id="cp0719AE">
         <rect x="0px" y="0px" width="612px" height="792px" />
      </clipPath>
      <g clip-path="url(#cp0719AE)">
         <path d="M 498.7 345.7 C 501.087 334.411 511.066 326.66 522.165 326.66 C 523.807 326.66 525.474 326.83 527.145 327.183 C 538.434 329.569 546.185 339.548 546.185 350.647 C 546.185 352.29 546.015 353.957 545.662 355.628 C 545.476 356.508 545.279 357.245 545 358.1 C 542.132 368.831 532.415 375.919 521.807 375.919 C 519.757 375.919 517.673 375.654 515.6 375.1 C 504.869 372.232 497.781 362.515 497.781 351.907 C 497.781 349.857 498.046 347.774 498.6 345.7 C 498.6 345.7 498.7 345.7 498.7 345.7 " fill="#FF0" fill-rule="evenodd" stroke="none" />
      </g>
      <clipPath id="cp0719AF">
         <rect x="0px" y="0px" width="612px" height="792px" />
      </clipPath>
      <g clip-path="url(#cp0719AF)">
         <clipPath id="cp0719B0">
            <rect x="0px" y="0px" width="640px" height="512px" />
         </clipPath>
         <g clip-path="url(#cp0719B0)">
            <path d="M 176 8 C 169.4 8 163.6 12 161.1 18.1 C 161.1 18.1 131.7 92.1 131.7 92.1 C 131.7 92.1 55.6 68.9 55.6 68.9 C 49.3 67 42.5 69.1 38.4 74.2 C 34.3 79.3 33.8 86.4 37 92.1 C 37 92.1 76.5 161.2 76.5 161.2 C 76.5 161.2 10.9 206.4 10.9 206.4 C 5.5 210.1 2.9 216.7 4.4 223.1 C 5.9 229.5 11.1 234.3 17.5 235.3 C 17.5 235.3 96.2 247.5 96.2 247.5 C 96.2 247.5 90.6 327 90.6 327 C 90.1 333.5 93.7 339.7 99.6 342.5 C 105.5 345.3 112.5 344.3 117.4 339.9 C 117.4 339.9 152.7 307.4 152.7 307.4 C 152.7 307.4 162.2 272 162.2 272 C 162.2 272 172.6 233.4 172.6 233.4 C 180.6 203.5 203.1 181.3 230.5 172.5 C 230.5 172.5 271.5 113.3 271.5 113.3 C 282.8 97 297.9 84.4 315 76.1 C 314.6 75.5 314.2 74.9 313.7 74.3 C 309.6 69.2 302.8 67.1 296.5 69 C 296.5 69 220.3 92.1 220.3 92.1 C 220.3 92.1 190.9 18.1 190.9 18.1 C 188.4 12 182.6 8 176 8 M 367.7 161.5 C 367.7 161.5 503.3 197.8 503.3 197.8 C 509.8 199.6 514.6 205.2 515.1 212 C 515.1 212 519.7 268.5 519.7 268.5 C 519.7 268.5 318.2 214.5 318.2 214.5 C 318.2 214.5 350.4 167.9 350.4 167.9 C 354.2 162.3 361.2 159.8 367.7 161.5 M 297.8 131.5 C 297.8 131.5 249.9 200.8 249.9 200.8 C 228.3 203.8 209.6 219.4 203.6 241.8 C 203.6 241.8 193.2 280.4 193.2 280.4 C 193.2 280.4 176.6 342.2 176.6 342.2 C 176.6 342.2 168.3 373.1 168.3 373.1 C 163.7 390.2 173.9 407.7 190.9 412.3 C 190.9 412.3 206.4 416.4 206.4 416.4 C 223.5 421 241 410.8 245.6 393.8 C 245.6 393.8 253.9 362.9 253.9 362.9 C 253.9 362.9 501.2 429.2 501.2 429.2 C 501.2 429.2 492.9 460.1 492.9 460.1 C 488.3 477.2 498.5 494.7 515.5 499.3 C 515.5 499.3 531 503.4 531 503.4 C 548.1 508 565.6 497.8 570.2 480.8 C 570.2 480.8 578.5 449.9 578.5 449.9 C 578.5 449.9 595 388 595 388 C 595 388 605.4 349.4 605.4 349.4 C 611.4 327 602.9 304.2 585.8 290.7 C 585.8 290.7 579 206.7 579 206.7 C 576.3 173 552.6 144.7 520 135.9 C 520 135.9 384.2 99.7 384.2 99.7 C 351.5 90.9 316.9 103.7 297.7 131.5 C 297.7 131.5 297.8 131.5 297.8 131.5 M 280.8 262.5 C 280.8 262.5 280.8 262.5 280.8 262.5 C 267.996 259.078 254.822 266.696 251.4 279.5 C 247.978 292.304 255.596 305.478 268.4 308.9 C 268.4 308.9 268.4 308.9 268.4 308.9 C 281.204 312.322 294.378 304.704 297.8 291.9 C 301.222 279.096 293.604 265.922 280.8 262.5 M 498.7 345.7 C 501.44 332.74 514.185 324.443 527.145 327.183 C 540.105 329.923 548.402 342.668 545.662 355.628 C 545.476 356.508 545.279 357.245 545 358.1 C 541.578 370.904 528.404 378.522 515.6 375.1 C 502.796 371.678 495.178 358.504 498.6 345.7 C 498.6 345.7 498.6 345.7 498.6 345.7 C 498.6 345.7 498.7 345.7 498.7 345.7 " fill="#000" fill-rule="nonzero" stroke="none" />
         </g>
      </g>
      <clipPath id="cp0719B1">
         <rect x="0px" y="0px" width="612px" height="792px" />
      </clipPath>
      <g clip-path="url(#cp0719B1)">
      </g>
      <clipPath id="cp0719B2">
         <rect x="0px" y="0px" width="612px" height="792px" />
      </clipPath>
      <g clip-path="url(#cp0719B2)">
         <clipPath id="cp0719B3">
            <rect x="0px" y="0px" width="640px" height="512px" />
         </clipPath>
         <g clip-path="url(#cp0719B3)">
            <path d="M 161.1 18.1 C 163.6 12 169.4 8 176 8 C 182.6 8 188.4 12 190.9 18.1 C 190.9 18.1 220.3 92.1 220.3 92.1 C 220.3 92.1 296.5 69 296.5 69 C 298.043 68.535 299.617 68.309 301.173 68.309 C 305.97 68.309 310.604 70.45 313.7 74.3 C 314.2 74.9 314.6 75.5 315 76.1 C 297.9 84.4 282.8 97 271.5 113.3 C 271.5 113.3 230.5 172.5 230.5 172.5 C 203.1 181.3 180.6 203.5 172.6 233.4 C 172.6 233.4 162.2 272 162.2 272 C 162.2 272 152.7 307.4 152.7 307.4 C 152.7 307.4 117.4 339.9 117.4 339.9 C 114.342 342.646 110.465 344.068 106.549 344.068 C 104.191 344.068 101.818 343.552 99.6 342.5 C 94.065 339.873 90.554 334.253 90.554 328.201 C 90.554 327.802 90.569 327.402 90.6 327 C 90.6 327 96.2 247.5 96.2 247.5 C 96.2 247.5 17.5 235.3 17.5 235.3 C 11.1 234.3 5.9 229.5 4.4 223.1 C 4.117 221.893 3.98 220.679 3.98 219.479 C 3.98 214.314 6.518 209.402 10.9 206.4 C 10.9 206.4 76.5 161.2 76.5 161.2 C 76.5 161.2 37 92.1 37 92.1 C 35.608 89.621 34.916 86.876 34.916 84.147 C 34.916 80.602 36.084 77.082 38.4 74.2 C 41.496 70.35 46.13 68.209 50.926 68.209 C 52.483 68.209 54.056 68.435 55.6 68.9 C 55.6 68.9 131.7 92.1 131.7 92.1 C 131.7 92.1 161.1 18.1 161.1 18.1 " fill="#FF7F00" fill-rule="evenodd" stroke="none" />
         </g>
      </g>
      <clipPath id="cp0719B4">
         <rect x="0px" y="0px" width="612px" height="792px" />
      </clipPath>
      <g clip-path="url(#cp0719B4)">
      </g>
      <clipPath id="cp0719B5">
         <rect x="0px" y="0px" width="612px" height="792px" />
      </clipPath>
      <g clip-path="url(#cp0719B5)">
         <clipPath id="cp0719B6">
            <rect x="0px" y="0px" width="640px" height="512px" />
         </clipPath>
         <g clip-path="url(#cp0719B6)">
            <path d="M 249.9 200.8 C 249.9 200.8 297.8 131.5 297.8 131.5 C 297.8 131.5 297.7 131.5 297.7 131.5 C 312.859 109.551 337.618 96.953 363.462 96.953 C 370.351 96.953 377.318 97.848 384.2 99.7 C 384.2 99.7 520 135.9 520 135.9 C 552.6 144.7 576.3 173 579 206.7 C 579 206.7 585.8 290.7 585.8 290.7 C 599.199 301.278 607.318 317.567 607.318 334.898 C 607.318 339.685 606.698 344.552 605.4 349.4 C 605.4 349.4 595 388 595 388 C 595 388 578.5 449.9 578.5 449.9 C 578.5 449.9 570.2 480.8 570.2 480.8 C 566.348 495.037 553.448 504.504 539.313 504.504 C 536.57 504.504 533.779 504.148 531 503.4 C 531 503.4 515.5 499.3 515.5 499.3 C 501.263 495.448 491.796 482.548 491.796 468.413 C 491.796 465.67 492.152 462.88 492.9 460.1 C 492.9 460.1 501.2 429.2 501.2 429.2 C 501.2 429.2 253.9 362.9 253.9 362.9 C 253.9 362.9 245.6 393.8 245.6 393.8 C 241.748 408.037 228.848 417.504 214.713 417.504 C 211.97 417.504 209.18 417.148 206.4 416.4 C 206.4 416.4 190.9 412.3 190.9 412.3 C 176.663 408.448 167.196 395.548 167.196 381.413 C 167.196 378.67 167.552 375.88 168.3 373.1 C 168.3 373.1 176.6 342.2 176.6 342.2 C 176.6 342.2 193.2 280.4 193.2 280.4 C 193.2 280.4 203.6 241.8 203.6 241.8 C 209.6 219.4 228.3 203.8 249.9 200.8 M 503.3 197.8 C 503.3 197.8 367.7 161.5 367.7 161.5 C 366.348 161.146 364.974 160.975 363.611 160.975 C 358.426 160.975 353.409 163.465 350.4 167.9 C 350.4 167.9 318.2 214.5 318.2 214.5 C 318.2 214.5 519.7 268.5 519.7 268.5 C 519.7 268.5 515.1 212 515.1 212 C 514.6 205.2 509.8 199.6 503.3 197.8 M 280.8 262.5 C 278.726 261.946 276.643 261.681 274.594 261.681 C 263.985 261.681 254.268 268.769 251.4 279.5 C 250.846 281.574 250.581 283.657 250.581 285.707 C 250.581 296.315 257.669 306.032 268.4 308.9 C 270.474 309.454 272.557 309.719 274.607 309.719 C 285.215 309.719 294.932 302.631 297.8 291.9 C 298.354 289.827 298.619 287.743 298.619 285.693 C 298.619 275.085 291.531 265.368 280.8 262.5 M 522.165 326.66 C 511.065 326.66 501.086 334.411 498.7 345.7 C 498.7 345.7 498.6 345.7 498.6 345.7 C 498.046 347.774 497.781 349.857 497.781 351.907 C 497.781 362.515 504.869 372.232 515.6 375.1 C 517.673 375.654 519.757 375.919 521.807 375.919 C 532.415 375.919 542.132 368.831 545 358.1 C 545.279 357.245 545.476 356.508 545.662 355.628 C 546.015 353.957 546.185 352.29 546.185 350.647 C 546.185 339.548 538.434 329.569 527.145 327.183 C 525.474 326.83 523.807 326.66 522.165 326.66 " fill="#282828" fill-rule="evenodd" stroke="none" />
         </g>
      </g>
      <clipPath id="cp0719B7">
         <rect x="0px" y="0px" width="612px" height="792px" />
      </clipPath>
      <g clip-path="url(#cp0719B7)">
         <clipPath id="cp0719B8">
            <rect x="0px" y="0px" width="640px" height="512px" />
         </clipPath>
         <g clip-path="url(#cp0719B8)">
            <path d="M 249.9 200.8 C 249.9 200.8 297.8 131.5 297.8 131.5 C 297.8 131.5 297.7 131.5 297.7 131.5 C 312.859 109.551 337.618 96.953 363.462 96.953 C 370.351 96.953 377.318 97.848 384.2 99.7 C 384.2 99.7 520 135.9 520 135.9 C 552.6 144.7 576.3 173 579 206.7 C 579 206.7 585.8 290.7 585.8 290.7 C 599.199 301.278 607.318 317.567 607.318 334.898 C 607.318 339.685 606.698 344.552 605.4 349.4 C 605.4 349.4 595 388 595 388 C 595 388 578.5 449.9 578.5 449.9 C 578.5 449.9 570.2 480.8 570.2 480.8 C 566.348 495.037 553.448 504.504 539.313 504.504 C 536.57 504.504 533.779 504.148 531 503.4 C 531 503.4 515.5 499.3 515.5 499.3 C 501.263 495.448 491.796 482.548 491.796 468.413 C 491.796 465.67 492.152 462.88 492.9 460.1 C 492.9 460.1 501.2 429.2 501.2 429.2 C 501.2 429.2 253.9 362.9 253.9 362.9 C 253.9 362.9 245.6 393.8 245.6 393.8 C 241.748 408.037 228.848 417.504 214.713 417.504 C 211.97 417.504 209.18 417.148 206.4 416.4 C 206.4 416.4 190.9 412.3 190.9 412.3 C 176.663 408.448 167.196 395.548 167.196 381.413 C 167.196 378.67 167.552 375.88 168.3 373.1 C 168.3 373.1 176.6 342.2 176.6 342.2 C 176.6 342.2 193.2 280.4 193.2 280.4 C 193.2 280.4 203.6 241.8 203.6 241.8 C 209.6 219.4 228.3 203.8 249.9 200.8 M 274.594 261.681 C 274.594 261.681 274.593 261.681 274.593 261.681 C 264.291 261.681 254.828 268.367 251.665 278.582 C 251.571 278.885 251.483 279.191 251.4 279.5 C 250.846 281.574 250.581 283.657 250.581 285.707 C 250.581 296.315 257.669 306.032 268.4 308.9 C 270.474 309.454 272.557 309.719 274.607 309.719 C 285.215 309.719 294.932 302.631 297.8 291.9 C 298.354 289.827 298.619 287.743 298.619 285.693 C 298.619 275.085 291.531 265.368 280.8 262.5 C 280.7 262.473 280.599 262.447 280.499 262.422 C 278.524 261.921 276.544 261.681 274.594 261.681 M 503.3 197.8 C 503.3 197.8 367.7 161.5 367.7 161.5 C 366.348 161.146 364.974 160.975 363.611 160.975 C 358.426 160.975 353.409 163.465 350.4 167.9 C 350.4 167.9 318.2 214.5 318.2 214.5 C 318.2 214.5 519.7 268.5 519.7 268.5 C 519.7 268.5 515.1 212 515.1 212 C 514.6 205.2 509.8 199.6 503.3 197.8 M 522.165 326.66 C 511.065 326.66 501.086 334.411 498.7 345.7 C 498.7 345.7 498.6 345.7 498.6 345.7 C 498.046 347.774 497.781 349.857 497.781 351.907 C 497.781 362.515 504.869 372.232 515.6 375.1 C 517.673 375.654 519.757 375.919 521.807 375.919 C 532.415 375.919 542.132 368.831 545 358.1 C 545.279 357.245 545.476 356.508 545.662 355.628 C 546.015 353.957 546.185 352.29 546.185 350.647 C 546.185 339.548 538.434 329.569 527.145 327.183 C 525.474 326.83 523.807 326.66 522.165 326.66 " fill="#AAA" fill-rule="evenodd" stroke="none" />
         </g>
      </g>
      <clipPath id="cp0719B9">
         <rect x="0px" y="0px" width="612px" height="792px" />
      </clipPath>
      <g clip-path="url(#cp0719B9)">
      </g>
      <clipPath id="cp0719BA">
         <rect x="0px" y="0px" width="612px" height="792px" />
      </clipPath>
      <g clip-path="url(#cp0719BA)">
         <clipPath id="cp0719BB">
            <rect x="0px" y="0px" width="640px" height="512px" />
         </clipPath>
         <g clip-path="url(#cp0719BB)">
            <path d="M 274.593 261.681 C 276.643 261.681 278.726 261.946 280.8 262.5 C 291.531 265.368 298.619 275.085 298.619 285.693 C 298.619 287.743 298.354 289.827 297.8 291.9 C 294.932 302.631 285.215 309.719 274.607 309.719 C 272.557 309.719 270.474 309.454 268.4 308.9 C 257.669 306.032 250.581 296.315 250.581 285.707 C 250.581 283.657 250.846 281.574 251.4 279.5 C 254.268 268.769 263.985 261.681 274.593 261.681 " fill="#FF0" fill-rule="evenodd" stroke="none" />
         </g>
      </g>
      <clipPath id="cp0719BC">
         <rect x="0px" y="0px" width="612px" height="792px" />
      </clipPath>
      <g clip-path="url(#cp0719BC)">
      </g>
   </g>
</svg>