<?xml version="1.0" standalone="no"?>
<!DOCTYPE svg PUBLIC "-//W3C//DTD SVG 20010904//EN"
   "http://www.w3.org/TR/2001/REC-SVG-20010904/DTD/svg10.dtd">

<svg xmlns="http://www.w3.org/2000/svg" xmlns:xlink="http://www.w3.org/1999/xlink" viewBox="0 0 512 512" width="30" height="20" >
   <g id="cvpage1_top" width="612px" height="792px" transform="translate(0,0)">
      <clipPath id="cp071987">
         <rect x="0px" y="0px" width="576px" height="512px" />
      </clipPath>
      <g clip-path="url(#cp071987)">
         <path d="M 230.4 512 C 230.4 512 199.1 459.8 199.1 459.8 C 197.547 457.224 196.797 454.374 196.797 451.557 C 196.797 446.938 198.811 442.406 202.6 439.3 C 202.6 439.3 288 368 288 368 C 288 368 227.8 285.2 227.8 285.2 C 225.554 282.109 224.582 278.869 224.582 275.773 C 224.582 267.127 232.167 259.609 240.756 259.609 C 244.012 259.609 247.413 260.69 250.6 263.2 C 250.6 263.2 368.5 355.8 368.5 355.8 C 372.576 359.01 374.627 363.725 374.627 368.438 C 374.627 372.976 372.726 377.512 368.9 380.7 C 368.9 380.7 288 448 288 448 C 288 448 326.4 512 326.4 512 C 326.4 512 230.4 512 230.4 512 " fill="#FF8E1C" fill-rule="evenodd" stroke="none" />
      </g>
      <clipPath id="cp071988">
         <rect x="0px" y="0px" width="576px" height="512px" />
      </clipPath>
      <g clip-path="url(#cp071988)">
         <clipPath id="cp071989">
            <rect x="0px" y="0px" width="576px" height="512px" />
         </clipPath>
         <g clip-path="url(#cp071989)">
            <path d="M 543.8 287.6 C 560.8 287.6 575.8 273.6 575.8 255.5 C 576.8 246.5 572.8 238.5 564.8 231.5 C 564.8 231.5 309.5 7 309.5 7 C 303.5 2 295.5 0 288.5 0 C 281.5 0 273.5 1 266.5 8 C 266.5 8 10 231.5 10 231.5 C 3 238.5 0 246.5 0 255.5 C 0 273.5 14 287.6 32 287.6 C 32 287.6 64 287.6 64 287.6 C 64 287.6 64 448 64 448 C 64 483.3 92.7 512 128 512 C 128 512 230.4 512 230.4 512 C 230.4 512 199.1 459.8 199.1 459.8 C 195 453 196.5 444.3 202.6 439.3 C 202.6 439.3 288 368 288 368 C 288 368 227.8 285.2 227.8 285.2 C 216.9 270.2 236 251.7 250.6 263.2 C 250.6 263.2 368.5 355.8 368.5 355.8 C 376.5 362.1 376.7 374.2 368.9 380.7 C 368.9 380.7 288 448 288 448 C 288 448 326.4 512 326.4 512 C 326.4 512 448.5 512 448.5 512 C 484 512 512.7 483.2 512.5 447.7 C 512.5 447.7 511.8 287.5 511.8 287.5 C 511.8 287.5 543.8 287.5 543.8 287.5 C 543.8 287.5 543.8 287.6 543.8 287.6 " fill="#000" fill-rule="evenodd" stroke="none" />
         </g>
      </g>
      <clipPath id="cp07198A">
         <rect x="0px" y="0px" width="576px" height="512px" />
      </clipPath>
      <g clip-path="url(#cp07198A)">
      </g>
      <clipPath id="cp07198B">
         <rect x="0px" y="0px" width="576px" height="512px" />
      </clipPath>
      <g clip-path="url(#cp07198B)">
         <clipPath id="cp07198C">
            <rect x="0px" y="0px" width="576px" height="512px" />
         </clipPath>
         <g clip-path="url(#cp07198C)">
            <path d="M 575.8 255.5 C 575.8 273.6 560.8 287.6 543.8 287.6 C 543.8 287.6 543.8 287.5 543.8 287.5 C 543.8 287.5 511.8 287.5 511.8 287.5 C 511.8 287.5 512.5 447.7 512.5 447.7 C 512.501 447.823 512.501 447.946 512.501 448.069 C 512.501 483.399 483.877 512 448.5 512 C 448.5 512 326.9 512 326.9 512 C 326.9 512 326.4 512 326.4 512 C 326.4 512 288 448 288 448 C 288 448 368.9 380.7 368.9 380.7 C 372.726 377.512 374.627 372.976 374.627 368.438 C 374.627 363.725 372.576 359.01 368.5 355.8 C 368.5 355.8 250.6 263.2 250.6 263.2 C 247.413 260.69 244.012 259.609 240.756 259.609 C 232.167 259.609 224.582 267.127 224.582 275.773 C 224.582 278.869 225.554 282.109 227.8 285.2 C 227.8 285.2 288 368 288 368 C 288 368 202.6 439.3 202.6 439.3 C 198.811 442.406 196.797 446.938 196.797 451.557 C 196.797 454.374 197.547 457.224 199.1 459.8 C 199.1 459.8 230.4 512 230.4 512 C 230.4 512 229.9 512 229.9 512 C 229.9 512 128 512 128 512 C 92.7 512 64 483.3 64 448 C 64 448 64 287.6 64 287.6 C 64 287.6 32 287.6 32 287.6 C 14 287.6 0 273.5 0 255.5 C 0 246.5 3 238.5 10 231.5 C 10 231.5 266.5 8 266.5 8 C 273.5 1 281.5 0 288.5 0 C 295.5 0 303.5 2 309.5 7 C 309.5 7 564.8 231.5 564.8 231.5 C 571.992 237.793 575.951 244.894 575.951 252.803 C 575.951 253.692 575.901 254.591 575.8 255.5 " fill="#C70000" fill-rule="evenodd" stroke="none" />
         </g>
      </g>
      <clipPath id="cp07198D">
         <rect x="0px" y="0px" width="576px" height="512px" />
      </clipPath>
      <g clip-path="url(#cp07198D)">
         <clipPath id="cp07198E">
            <rect x="0px" y="0px" width="576px" height="512px" />
         </clipPath>
         <g clip-path="url(#cp07198E)">
            <path d="M 575.8 255.5 C 575.8 273.6 560.8 287.6 543.8 287.6 C 543.8 287.6 543.8 287.5 543.8 287.5 C 543.8 287.5 511.8 287.5 511.8 287.5 C 511.8 287.5 512.5 447.7 512.5 447.7 C 512.501 447.823 512.501 447.946 512.501 448.069 C 512.501 483.399 483.877 512 448.5 512 C 448.5 512 326.9 512 326.9 512 C 326.9 512 326.4 512 326.4 512 C 326.4 512 288 448 288 448 C 288 448 368.9 380.7 368.9 380.7 C 372.726 377.512 374.627 372.976 374.627 368.438 C 374.627 363.725 372.576 359.01 368.5 355.8 C 368.5 355.8 250.6 263.2 250.6 263.2 C 247.413 260.69 244.012 259.609 240.756 259.609 C 232.167 259.609 224.582 267.127 224.582 275.773 C 224.582 278.869 225.554 282.109 227.8 285.2 C 227.8 285.2 288 368 288 368 C 288 368 202.6 439.3 202.6 439.3 C 198.811 442.406 196.797 446.938 196.797 451.557 C 196.797 454.374 197.547 457.224 199.1 459.8 C 199.1 459.8 230.4 512 230.4 512 C 230.4 512 229.9 512 229.9 512 C 229.9 512 128 512 128 512 C 92.7 512 64 483.3 64 448 C 64 448 64 287.6 64 287.6 C 64 287.6 32 287.6 32 287.6 C 14 287.6 0 273.5 0 255.5 C 0 246.5 3 238.5 10 231.5 C 10 231.5 266.5 8 266.5 8 C 273.5 1 281.5 0 288.5 0 C 295.5 0 303.5 2 309.5 7 C 309.5 7 564.8 231.5 564.8 231.5 C 571.992 237.793 575.951 244.894 575.951 252.803 C 575.951 253.692 575.901 254.591 575.8 255.5 " fill="#AAA" fill-rule="evenodd" stroke="none" />
         </g>
      </g>
      <clipPath id="cp07198F">
         <rect x="0px" y="0px" width="576px" height="512px" />
      </clipPath>
      <g clip-path="url(#cp07198F)">
      </g>
      <clipPath id="cp071990">
         <rect x="0px" y="0px" width="576px" height="512px" />
      </clipPath>
      <g clip-path="url(#cp071990)">
         <line x1="230.4px" y1="512px" x2="326.4px" y2="512px" fill="none" stroke="#FFFF71" />
      </g>
   </g>
</svg>