<?xml version="1.0" standalone="no"?>
<!DOCTYPE svg PUBLIC "-//W3C//DTD SVG 20010904//EN"
   "http://www.w3.org/TR/2001/REC-SVG-20010904/DTD/svg10.dtd">

<svg xmlns="http://www.w3.org/2000/svg" xmlns:xlink="http://www.w3.org/1999/xlink"  viewBox="0 0 512 512" width="30" height="20">
   <g id="cvpage1_top" width="612px" height="792px" transform="translate(0,0)">
      <clipPath id="cp071987">
         <rect x="0px" y="0px" width="612px" height="792px" />
      </clipPath>
      <g clip-path="url(#cp071987)">
         <clipPath id="cp071988">
            <rect x="0px" y="0px" width="576px" height="512px" />
         </clipPath>
         <g clip-path="url(#cp071988)">
            <clipPath id="cp071989">
               <rect x="0px" y="0px" width="640px" height="512px" />
            </clipPath>
            <g clip-path="url(#cp071989)">
               <path d="M 288 144 C 288 144 288 144 288 144 C 288 64.524 223.476 0 144 0 C 64.524 0 0 64.524 0 144 C 0 144 0 144 0 144 C 0 223.476 64.524 288 144 288 C 223.476 288 288 223.476 288 144 M 140.7 76.7 C 146.9 70.5 157.1 70.5 163.3 76.7 C 163.3 76.7 219.3 132.7 219.3 132.7 C 225.5 138.9 225.5 149.1 219.3 155.3 C 219.3 155.3 163.3 211.3 163.3 211.3 C 157.1 217.5 146.9 217.5 140.7 211.3 C 134.5 205.1 134.5 194.9 140.7 188.7 C 140.7 188.7 169.4 160 169.4 160 C 169.4 160 80 160 80 160 C 71.2 160 64 152.8 64 144 C 64 135.2 71.2 128 80 128 C 80 128 169.4 128 169.4 128 C 169.4 128 140.7 99.3 140.7 99.3 C 134.5 93.1 134.5 82.9 140.7 76.7 M 320 144 C 320 201.3 292.6 252.2 250.2 284.3 C 262 280.7 273.2 274.9 283.2 268.1 C 305.3 252.6 334.8 252.6 356.9 268.1 C 375.3 280.8 396.5 288.4 416.1 288.4 C 435.1 288.4 457.3 280.5 475.3 268.1 C 499.1 251.4 531.1 252.7 553.4 271.5 C 555.5 273.2 557.6 274.8 559.9 276.4 C 559.9 276.4 559.6 192 559.6 192 C 559.6 192 576 192 576 192 C 589.9 192 602.1 183.1 606.4 169.9 C 610.7 156.7 606 142.3 594.8 134.1 C 594.8 134.1 418.8 6.1 418.8 6.1 C 407.6 -2 392.4 -2 381.2 6.1 C 381.2 6.1 301 64.4 301 64.4 C 313.1 88.3 320 115.3 320 144 M 338.5 309.9 C 327.4 302 312.6 302 301.5 309.9 C 279 325.4 251.5 336 224 336 C 197.1 336 168.7 325.2 146.6 309.9 C 146.6 309.9 146.6 309.9 146.6 309.9 C 134.7 301.4 118.5 302.1 107.4 311.6 C 93 323.5 74.9 332.6 56.8 336.8 C 39.6 340.8 28.9 358 32.9 375.2 C 36.9 392.4 54.1 403.1 71.3 399.1 C 95.8 393.4 116.2 382.6 129.5 374.1 C 158.5 389.7 191 400 224 400 C 255.9 400 284.6 390.1 304.4 381.1 C 310.2 378.4 315.5 375.8 320 373.4 C 324.5 375.8 329.7 378.5 335.6 381.1 C 355.4 390.1 384.2 400 416 400 C 449 400 481.5 389.7 510.5 374.2 C 523.9 382.6 544.2 393.5 568.7 399.2 C 585.9 403.2 603.1 392.5 607.1 375.3 C 611.1 358.1 600.4 340.9 583.2 336.9 C 565.1 332.7 547 323.6 532.6 311.7 C 521.5 302.2 505.3 301.6 493.4 310 C 493.4 310 493.4 310 493.4 310 C 471.4 325.2 442.9 336 416 336 C 388.5 336 361 325.4 338.5 309.9 M 338.5 421.9 C 327.4 414 312.6 414 301.5 421.9 C 279 437.4 251.5 448 224 448 C 197.1 448 168.7 437.2 146.6 421.9 C 146.6 421.9 146.6 421.9 146.6 421.9 C 134.7 413.4 118.5 414.1 107.4 423.6 C 93 435.5 74.9 444.6 56.8 448.8 C 39.6 452.8 28.9 470 32.9 487.2 C 36.9 504.4 54.1 515.1 71.3 511.1 C 95.8 505.4 116.2 494.6 129.5 486.1 C 158.5 501.7 191 512 224 512 C 255.9 512 284.6 502.1 304.4 493.1 C 310.2 490.4 315.5 487.8 320 485.4 C 324.5 487.8 329.7 490.5 335.6 493.1 C 355.4 502.1 384.2 512 416 512 C 449 512 481.5 501.7 510.5 486.2 C 523.9 494.6 544.2 505.5 568.7 511.2 C 585.9 515.2 603.1 504.5 607.1 487.3 C 611.1 470.1 600.4 452.9 583.2 448.9 C 565.1 444.7 547 435.6 532.6 423.7 C 521.5 414.3 505.3 413.6 493.4 422 C 493.4 422 493.4 422 493.4 422 C 471.4 437.2 442.9 448 416 448 C 388.5 448 361 437.4 338.5 421.9 " fill="#0677DC" fill-rule="nonzero" stroke="none" />
            </g>
         </g>
      </g>
      <clipPath id="cp07198A">
         <rect x="0px" y="0px" width="612px" height="792px" />
      </clipPath>
      <g clip-path="url(#cp07198A)">
         <clipPath id="cp07198B">
            <rect x="0px" y="0px" width="576px" height="512px" />
         </clipPath>
         <g clip-path="url(#cp07198B)">
         </g>
      </g>
      <clipPath id="cp07198C">
         <rect x="0px" y="0px" width="612px" height="792px" />
      </clipPath>
      <g clip-path="url(#cp07198C)">
      </g>
      <clipPath id="cp07198D">
         <rect x="0px" y="0px" width="612px" height="792px" />
      </clipPath>
      <g clip-path="url(#cp07198D)">
         <clipPath id="cp07198E">
            <rect x="0px" y="0px" width="576px" height="512px" />
         </clipPath>
         <g clip-path="url(#cp07198E)">
            <clipPath id="cp07198F">
               <rect x="0px" y="0px" width="640px" height="512px" />
            </clipPath>
            <g clip-path="url(#cp07198F)">
               <path d="M 144 0 C 223.476 0 288 64.524 288 144 C 288 223.476 223.476 288 144 288 C 64.524 288 0 223.476 0 144 C 0 64.524 64.524 0 144 0 M 152 72.05 C 147.9 72.05 143.8 73.6 140.7 76.7 C 137.6 79.8 136.05 83.9 136.05 88 C 136.05 92.1 137.6 96.2 140.7 99.3 C 140.7 99.3 169.4 128 169.4 128 C 169.4 128 80 128 80 128 C 71.2 128 64 135.2 64 144 C 64 152.8 71.2 160 80 160 C 80 160 169.4 160 169.4 160 C 169.4 160 140.7 188.7 140.7 188.7 C 137.6 191.8 136.05 195.9 136.05 200 C 136.05 204.1 137.6 208.2 140.7 211.3 C 143.8 214.4 147.9 215.95 152 215.95 C 156.1 215.95 160.2 214.4 163.3 211.3 C 163.3 211.3 219.3 155.3 219.3 155.3 C 222.4 152.2 223.95 148.1 223.95 144 C 223.95 139.9 222.4 135.8 219.3 132.7 C 219.3 132.7 163.3 76.7 163.3 76.7 C 160.2 73.6 156.1 72.05 152 72.05 " fill="#0A0" fill-rule="evenodd" stroke="none" />
            </g>
         </g>
      </g>
      <clipPath id="cp071990">
         <rect x="0px" y="0px" width="612px" height="792px" />
      </clipPath>
      <g clip-path="url(#cp071990)">
         <clipPath id="cp071991">
            <rect x="0px" y="0px" width="576px" height="512px" />
         </clipPath>
         <g clip-path="url(#cp071991)">
         </g>
      </g>
      <clipPath id="cp071992">
         <rect x="0px" y="0px" width="612px" height="792px" />
      </clipPath>
      <g clip-path="url(#cp071992)">
      </g>
      <clipPath id="cp071993">
         <rect x="0px" y="0px" width="612px" height="792px" />
      </clipPath>
      <g clip-path="url(#cp071993)">
         <clipPath id="cp071994">
            <rect x="0px" y="0px" width="576px" height="512px" />
         </clipPath>
         <g clip-path="url(#cp071994)">
            <clipPath id="cp071995">
               <rect x="0px" y="0px" width="640px" height="512px" />
            </clipPath>
            <g clip-path="url(#cp071995)">
               <path d="M 144 0 C 223.476 0 288 64.524 288 144 C 288 223.476 223.476 288 144 288 C 64.524 288 0 223.476 0 144 C 0 64.524 64.524 0 144 0 M 152 72.05 C 147.9 72.05 143.8 73.6 140.7 76.7 C 137.6 79.8 136.05 83.9 136.05 88 C 136.05 92.1 137.6 96.2 140.7 99.3 C 140.7 99.3 169.4 128 169.4 128 C 169.4 128 80 128 80 128 C 71.2 128 64 135.2 64 144 C 64 152.8 71.2 160 80 160 C 80 160 169.4 160 169.4 160 C 169.4 160 140.7 188.7 140.7 188.7 C 137.6 191.8 136.05 195.9 136.05 200 C 136.05 204.1 137.6 208.2 140.7 211.3 C 143.8 214.4 147.9 215.95 152 215.95 C 156.1 215.95 160.2 214.4 163.3 211.3 C 163.3 211.3 219.3 155.3 219.3 155.3 C 222.4 152.2 223.95 148.1 223.95 144 C 223.95 139.9 222.4 135.8 219.3 132.7 C 219.3 132.7 163.3 76.7 163.3 76.7 C 160.2 73.6 156.1 72.05 152 72.05 " fill="#282828" fill-rule="evenodd" stroke="none" />
            </g>
         </g>
      </g>
      <clipPath id="cp071996">
         <rect x="0px" y="0px" width="612px" height="792px" />
      </clipPath>
      <g clip-path="url(#cp071996)">
         <clipPath id="cp071997">
            <rect x="0px" y="0px" width="576px" height="512px" />
         </clipPath>
         <g clip-path="url(#cp071997)">
            <clipPath id="cp071998">
               <rect x="0px" y="0px" width="640px" height="512px" />
            </clipPath>
            <g clip-path="url(#cp071998)">
               <path d="M 144 0 C 223.476 0 288 64.524 288 144 C 288 223.476 223.476 288 144 288 C 64.524 288 0 223.476 0 144 C 0 64.524 64.524 0 144 0 M 152 72.05 C 147.9 72.05 143.8 73.6 140.7 76.7 C 137.6 79.8 136.05 83.9 136.05 88 C 136.05 92.1 137.6 96.2 140.7 99.3 C 140.7 99.3 169.4 128 169.4 128 C 169.4 128 80 128 80 128 C 71.2 128 64 135.2 64 144 C 64 152.8 71.2 160 80 160 C 80 160 169.4 160 169.4 160 C 169.4 160 140.7 188.7 140.7 188.7 C 137.6 191.8 136.05 195.9 136.05 200 C 136.05 204.1 137.6 208.2 140.7 211.3 C 143.8 214.4 147.9 215.95 152 215.95 C 156.1 215.95 160.2 214.4 163.3 211.3 C 163.3 211.3 219.3 155.3 219.3 155.3 C 222.4 152.2 223.95 148.1 223.95 144 C 223.95 139.9 222.4 135.8 219.3 132.7 C 219.3 132.7 163.3 76.7 163.3 76.7 C 160.2 73.6 156.1 72.05 152 72.05 " fill="#AAA" fill-rule="evenodd" stroke="none" />
            </g>
         </g>
      </g>
      <clipPath id="cp071999">
         <rect x="0px" y="0px" width="612px" height="792px" />
      </clipPath>
      <g clip-path="url(#cp071999)">
         <clipPath id="cp07199A">
            <rect x="0px" y="0px" width="576px" height="512px" />
         </clipPath>
         <g clip-path="url(#cp07199A)">
         </g>
      </g>
      <clipPath id="cp07199B">
         <rect x="0px" y="0px" width="612px" height="792px" />
      </clipPath>
      <g clip-path="url(#cp07199B)">
      </g>
      <clipPath id="cp07199C">
         <rect x="0px" y="0px" width="612px" height="792px" />
      </clipPath>
      <g clip-path="url(#cp07199C)">
         <clipPath id="cp07199D">
            <rect x="0px" y="0px" width="576px" height="512px" />
         </clipPath>
         <g clip-path="url(#cp07199D)">
            <clipPath id="cp07199E">
               <rect x="0px" y="0px" width="640px" height="512px" />
            </clipPath>
            <g clip-path="url(#cp07199E)">
               <path d="M 250.2 284.3 C 292.6 252.2 320 201.3 320 144 C 320 115.3 313.1 88.3 301 64.4 C 301 64.4 381.2 6.1 381.2 6.1 C 386.8 2.05 393.4 0.025 400 0.025 C 406.6 0.025 413.2 2.05 418.8 6.1 C 418.8 6.1 594.8 134.1 594.8 134.1 C 603.229 140.271 607.977 149.955 607.977 159.995 C 607.977 163.296 607.464 166.634 606.4 169.9 C 602.1 183.1 589.9 192 576 192 C 576 192 559.6 192 559.6 192 C 559.6 192 559.9 276.4 559.9 276.4 C 557.6 274.8 555.5 273.2 553.4 271.5 C 541.512 261.478 526.868 256.429 512.179 256.429 C 499.313 256.429 486.413 260.302 475.3 268.1 C 457.3 280.5 435.1 288.4 416.1 288.4 C 396.5 288.4 375.3 280.8 356.9 268.1 C 345.85 260.35 332.95 256.475 320.05 256.475 C 307.15 256.475 294.25 260.35 283.2 268.1 C 273.2 274.9 262 280.7 250.2 284.3 " fill="#713800" fill-rule="evenodd" stroke="none" />
            </g>
         </g>
      </g>
      <clipPath id="cp07199F">
         <rect x="0px" y="0px" width="612px" height="792px" />
      </clipPath>
      <g clip-path="url(#cp07199F)">
         <clipPath id="cp0719A0">
            <rect x="0px" y="0px" width="576px" height="512px" />
         </clipPath>
         <g clip-path="url(#cp0719A0)">
         </g>
      </g>
      <clipPath id="cp0719A1">
         <rect x="0px" y="0px" width="612px" height="792px" />
      </clipPath>
      <g clip-path="url(#cp0719A1)">
      </g>
      <clipPath id="cp0719A2">
         <rect x="0px" y="0px" width="612px" height="792px" />
      </clipPath>
      <g clip-path="url(#cp0719A2)">
         <clipPath id="cp0719A3">
            <rect x="0px" y="0px" width="576px" height="512px" />
         </clipPath>
         <g clip-path="url(#cp0719A3)">
            <clipPath id="cp0719A4">
               <rect x="0px" y="0px" width="640px" height="512px" />
            </clipPath>
            <g clip-path="url(#cp0719A4)">
               <path d="M 250.2 284.3 C 292.6 252.2 320 201.3 320 144 C 320 115.3 313.1 88.3 301 64.4 C 301 64.4 381.2 6.1 381.2 6.1 C 386.8 2.05 393.4 0.025 400 0.025 C 406.6 0.025 413.2 2.05 418.8 6.1 C 418.8 6.1 594.8 134.1 594.8 134.1 C 603.229 140.271 607.977 149.955 607.977 159.995 C 607.977 163.296 607.464 166.634 606.4 169.9 C 602.1 183.1 589.9 192 576 192 C 576 192 559.6 192 559.6 192 C 559.6 192 559.9 276.4 559.9 276.4 C 557.6 274.8 555.5 273.2 553.4 271.5 C 541.512 261.478 526.868 256.429 512.179 256.429 C 499.313 256.429 486.413 260.302 475.3 268.1 C 457.3 280.5 435.1 288.4 416.1 288.4 C 396.5 288.4 375.3 280.8 356.9 268.1 C 345.85 260.35 332.95 256.475 320.05 256.475 C 307.15 256.475 294.25 260.35 283.2 268.1 C 273.2 274.9 262 280.7 250.2 284.3 " fill="#282828" fill-rule="evenodd" stroke="none" />
            </g>
         </g>
      </g>
      <clipPath id="cp0719A5">
         <rect x="0px" y="0px" width="612px" height="792px" />
      </clipPath>
      <g clip-path="url(#cp0719A5)">
         <clipPath id="cp0719A6">
            <rect x="0px" y="0px" width="576px" height="512px" />
         </clipPath>
         <g clip-path="url(#cp0719A6)">
            <clipPath id="cp0719A7">
               <rect x="0px" y="0px" width="640px" height="512px" />
            </clipPath>
            <g clip-path="url(#cp0719A7)">
               <path d="M 250.2 284.3 C 292.6 252.2 320 201.3 320 144 C 320 115.3 313.1 88.3 301 64.4 C 301 64.4 381.2 6.1 381.2 6.1 C 386.8 2.05 393.4 0.025 400 0.025 C 406.6 0.025 413.2 2.05 418.8 6.1 C 418.8 6.1 594.8 134.1 594.8 134.1 C 603.229 140.271 607.977 149.955 607.977 159.995 C 607.977 163.296 607.464 166.634 606.4 169.9 C 602.1 183.1 589.9 192 576 192 C 576 192 559.6 192 559.6 192 C 559.6 192 559.9 276.4 559.9 276.4 C 557.6 274.8 555.5 273.2 553.4 271.5 C 541.512 261.478 526.868 256.429 512.179 256.429 C 499.313 256.429 486.413 260.302 475.3 268.1 C 457.3 280.5 435.1 288.4 416.1 288.4 C 396.5 288.4 375.3 280.8 356.9 268.1 C 345.85 260.35 332.95 256.475 320.05 256.475 C 307.15 256.475 294.25 260.35 283.2 268.1 C 273.2 274.9 262 280.7 250.2 284.3 " fill="#AAA" fill-rule="evenodd" stroke="none" />
            </g>
         </g>
      </g>
      <clipPath id="cp0719A8">
         <rect x="0px" y="0px" width="612px" height="792px" />
      </clipPath>
      <g clip-path="url(#cp0719A8)">
         <clipPath id="cp0719A9">
            <rect x="0px" y="0px" width="576px" height="512px" />
         </clipPath>
         <g clip-path="url(#cp0719A9)">
         </g>
      </g>
      <clipPath id="cp0719AA">
         <rect x="0px" y="0px" width="612px" height="792px" />
      </clipPath>
      <g clip-path="url(#cp0719AA)">
      </g>
   </g>
</svg>