<?xml version="1.0" standalone="no"?>
<!DOCTYPE svg PUBLIC "-//W3C//DTD SVG 20010904//EN"
   "http://www.w3.org/TR/2001/REC-SVG-20010904/DTD/svg10.dtd">

<svg xmlns="http://www.w3.org/2000/svg" xmlns:xlink="http://www.w3.org/1999/xlink" width="612px" height="792px">
   <g id="cvpage1_top" width="612px" height="792px" transform="translate(0,0)">
      <clipPath id="cp071966">
         <rect x="0px" y="0px" width="512px" height="512px" />
      </clipPath>
      <g clip-path="url(#cp071966)">
         <path d="M 217.9 105.9 C 217.9 105.9 340.7 228.7 340.7 228.7 C 347.9 235.9 352 245.8 352 256 C 352 266.2 347.9 276.1 340.7 283.3 C 340.7 283.3 217.9 406.1 217.9 406.1 C 211.5 412.5 202.9 416 193.9 416 C 175.2 416 160 400.8 160 382.1 C 160 382.1 160 320 160 320 C 160 320 32 320 32 320 C 14.3 320 0 305.7 0 288 C 0 288 0 224 0 224 C 0 206.3 14.3 192 32 192 C 32 192 160 192 160 192 C 160 192 160 129.9 160 129.9 C 160 111.2 175.2 96 193.9 96 C 202.9 96 211.5 99.6 217.9 105.9 M 352 416 C 352 416 416 416 416 416 C 433.7 416 448 401.7 448 384 C 448 384 448 128 448 128 C 448 110.3 433.7 96 416 96 C 416 96 352 96 352 96 C 334.3 96 320 81.7 320 64 C 320 46.3 334.3 32 352 32 C 352 32 416 32 416 32 C 469 32 512 75 512 128 C 512 128 512 384 512 384 C 512 437 469 480 416 480 C 416 480 352 480 352 480 C 334.3 480 320 465.7 320 448 C 320 430.3 334.3 416 352 416 " fill="#000" fill-rule="nonzero" stroke="none" />
      </g>
      <clipPath id="cp071967">
         <rect x="0px" y="0px" width="512px" height="512px" />
      </clipPath>
      <g clip-path="url(#cp071967)">
         <path d="M 217.9 105.9 C 217.9 105.9 340.7 228.7 340.7 228.7 C 347.9 235.9 352 245.8 352 256 C 352 266.2 347.9 276.1 340.7 283.3 C 340.7 283.3 217.9 406.1 217.9 406.1 C 211.5 412.5 202.9 416 193.9 416 C 175.2 416 160 400.8 160 382.1 C 160 382.1 160 320 160 320 C 160 320 32 320 32 320 C 14.3 320 0 305.7 0 288 C 0 288 0 224 0 224 C 0 206.3 14.3 192 32 192 C 32 192 160 192 160 192 C 160 192 160 129.9 160 129.9 C 160 111.2 175.2 96 193.9 96 C 202.9 96 211.5 99.6 217.9 105.9 " fill="#FFFF1C" fill-rule="evenodd" stroke="none" />
      </g>
      <clipPath id="cp071968">
         <rect x="0px" y="0px" width="512px" height="512px" />
      </clipPath>
      <g clip-path="url(#cp071968)">
         <path d="M 352 416 C 352 416 416 416 416 416 C 433.7 416 448 401.7 448 384 C 448 384 448 128 448 128 C 448 110.3 433.7 96 416 96 C 416 96 352 96 352 96 C 334.3 96 320 81.7 320 64 C 320 46.3 334.3 32 352 32 C 352 32 416 32 416 32 C 469 32 512 75 512 128 C 512 128 512 384 512 384 C 512 437 469 480 416 480 C 416 480 352 480 352 480 C 334.3 480 320 465.7 320 448 C 320 430.3 334.3 416 352 416 " fill="#8E4700" fill-rule="evenodd" stroke="none" />
      </g>
   </g>
</svg>