<?xml version="1.0" standalone="no"?>
<!DOCTYPE svg PUBLIC "-//W3C//DTD SVG 20010904//EN"
   "http://www.w3.org/TR/2001/REC-SVG-20010904/DTD/svg10.dtd">

<svg xmlns="http://www.w3.org/2000/svg" xmlns:xlink="http://www.w3.org/1999/xlink" width="612px" height="792px" viewBox="0 0 512 512">
   <g id="cvpage1_top" width="612px" height="792px" transform="translate(0,0)">
      <clipPath id="cp071963">
         <rect x="0px" y="0px" width="576px" height="512px" />
      </clipPath>
      <g clip-path="url(#cp071963)">
         <path d="M 408 120 C 408 174.6 334.9 271.9 302.8 312 C 295.1 321.6 280.8 321.6 273.2 312 C 241.1 271.9 168 174.6 168 120 C 168 53.7 221.7 0 288 0 C 354.3 0 408 53.7 408 120 M 416 200.4 C 419.5 193.5 422.7 186.6 425.6 179.8 C 426.1 178.6 426.6 177.3 427.1 176.1 C 427.1 176.1 543.1 129.7 543.1 129.7 C 558.9 123.4 576 135 576 152 C 576 152 576 422.8 576 422.8 C 576 432.6 570 441.4 560.9 445.1 C 560.9 445.1 416 503 416 503 C 416 503 416 200.4 416 200.4 M 137.6 138.3 C 140 152.4 144.8 166.6 150.4 179.8 C 153.3 186.6 156.5 193.5 160 200.4 C 160 200.4 160 451.8 160 451.8 C 160 451.8 32.9 502.7 32.9 502.7 C 17.1 509 0 497.4 0 480.4 C 0 480.4 0 209.6 0 209.6 C 0 199.8 6 191 15.1 187.3 C 15.1 187.3 137.7 138.3 137.7 138.3 C 137.7 138.3 137.6 138.3 137.6 138.3 M 327.8 332 C 341.7 314.6 363.5 286.3 384 255 C 384 255 384 504.3 384 504.3 C 384 504.3 192 449.4 192 449.4 C 192 449.4 192 255 192 255 C 212.5 286.3 234.3 314.6 248.2 332 C 268.7 357.6 307.3 357.6 327.8 332 M 288 152 C 288 152 288 152 288 152 C 310.077 152 328 134.077 328 112 C 328 89.923 310.077 72 288 72 C 288 72 288 72 288 72 C 265.923 72 248 89.923 248 112 C 248 134.077 265.923 152 288 152 " fill="#000" fill-rule="nonzero" stroke="none" />
      </g>
      <clipPath id="cp071964">
         <rect x="0px" y="0px" width="576px" height="512px" />
      </clipPath>
      <g clip-path="url(#cp071964)">
         <path d="M 416 200.4 C 419.5 193.5 422.7 186.6 425.6 179.8 C 425.85 179.2 426.1 178.575 426.35 177.95 C 426.6 177.325 426.85 176.7 427.1 176.1 C 427.1 176.1 543.1 129.7 543.1 129.7 C 546.076 128.513 549.098 127.962 552.044 127.962 C 564.735 127.962 576 138.202 576 152 C 576 152 576 422.8 576 422.8 C 576 432.6 570 441.4 560.9 445.1 C 560.9 445.1 416 503 416 503 C 416 503 416 200.4 416 200.4 " fill="#00E371" fill-rule="evenodd" stroke="none" />
      </g>
      <clipPath id="cp071965">
         <rect x="0px" y="0px" width="576px" height="512px" />
      </clipPath>
      <g clip-path="url(#cp071965)">
         <path d="M 327.8 332 C 341.7 314.6 363.5 286.3 384 255 C 384 255 384 504.3 384 504.3 C 384 504.3 192 449.4 192 449.4 C 192 449.4 192 255 192 255 C 212.5 286.3 234.3 314.6 248.2 332 C 258.45 344.8 273.225 351.2 288 351.2 C 302.775 351.2 317.55 344.8 327.8 332 " fill="#00E371" fill-rule="evenodd" stroke="none" />
      </g>
      <clipPath id="cp071966">
         <rect x="0px" y="0px" width="576px" height="512px" />
      </clipPath>
      <g clip-path="url(#cp071966)">
         <path d="M 137.606 138.338 C 140.008 152.425 144.805 166.612 150.4 179.8 C 153.3 186.6 156.5 193.5 160 200.4 C 160 200.4 160 451.8 160 451.8 C 160 451.8 32.9 502.7 32.9 502.7 C 29.924 503.887 26.902 504.438 23.956 504.438 C 11.265 504.438 0 494.198 0 480.4 C 0 480.4 0 209.6 0 209.6 C 0 199.8 6 191 15.1 187.3 C 15.1 187.3 137.606 138.338 137.606 138.338 " fill="#00E371" fill-rule="evenodd" stroke="none" />
      </g>
      <clipPath id="cp071967">
         <rect x="0px" y="0px" width="576px" height="512px" />
      </clipPath>
      <g clip-path="url(#cp071967)">
         <path d="M 408 120 C 408 174.6 334.9 271.9 302.8 312 C 298.95 316.8 293.45 319.2 287.962 319.2 C 282.475 319.2 277 316.8 273.2 312 C 241.1 271.9 168 174.6 168 120 C 168 53.7 221.7 0 288 0 C 354.3 0 408 53.7 408 120 M 288 152 C 310.077 152 328 134.077 328 112 C 328 89.923 310.077 72 288 72 C 265.923 72 248 89.923 248 112 C 248 134.077 265.923 152 288 152 " fill="#FF1C1C" fill-rule="evenodd" stroke="none" />
      </g>
      <image x="0px" y="0px" width="72px" height="72px" xlink:href="./_res/oocx96et.gif"></image>
   </g>
</svg>