<?xml version="1.0" standalone="no"?>
<!DOCTYPE svg PUBLIC "-//W3C//DTD SVG 20010904//EN"
   "http://www.w3.org/TR/2001/REC-SVG-20010904/DTD/svg10.dtd">

<svg xmlns="http://www.w3.org/2000/svg" xmlns:xlink="http://www.w3.org/1999/xlink" viewBox="0 0 512 512" width="30" height="20">
   <g id="cvpage1_top" width="612px" height="792px" transform="translate(0,0)">
      <clipPath id="cp071992">
         <rect x="0px" y="0px" width="576px" height="512px" />
      </clipPath>
      <g clip-path="url(#cp071992)">
         <clipPath id="cp071993">
            <rect x="0px" y="0px" width="512px" height="512px" />
         </clipPath>
         <g clip-path="url(#cp071993)">
            <path d="M 500.3 7.3 C 507.7 13.3 512 22.4 512 32 C 512 32 512 176 512 176 C 512 202.5 483.3 224 448 224 C 412.7 224 384 202.5 384 176 C 384 149.5 412.7 128 448 128 C 448 128 448 71 448 71 C 448 71 352 90.2 352 90.2 C 352 90.2 352 208 352 208 C 352 234.5 323.3 256 288 256 C 252.7 256 224 234.5 224 208 C 224 181.5 252.7 160 288 160 C 288 160 288 64 288 64 C 288 48.7 298.8 35.6 313.7 32.6 C 313.7 32.6 473.7 0.6 473.7 0.6 C 483.1 -1.3 492.8 1.2 500.3 7.2 C 500.3 7.2 500.3 7.3 500.3 7.3 M 74.7 304 C 74.7 304 86.5 286.2 86.5 286.2 C 92.4 277.3 102.4 272 113.1 272 C 113.1 272 174.8 272 174.8 272 C 185.5 272 195.5 277.3 201.4 286.2 C 201.4 286.2 213.3 304 213.3 304 C 213.3 304 240 304 240 304 C 266.5 304 288 325.5 288 352 C 288 352 288 464 288 464 C 288 490.5 266.5 512 240 512 C 240 512 48 512 48 512 C 21.5 512 0 490.5 0 464 C 0 464 0 352 0 352 C 0 325.5 21.5 304 48 304 C 48 304 74.7 304 74.7 304 M 192 408 C 192 408 192 408 192 408 C 192 381.508 170.492 360 144 360 C 117.508 360 96 381.508 96 408 C 96 408 96 408 96 408 C 96 434.492 117.508 456 144 456 C 170.492 456 192 434.492 192 408 M 478.7 278.3 C 478.7 278.3 440.3 368 440.3 368 C 440.3 368 496 368 496 368 C 502.7 368 508.6 372.1 511 378.4 C 513.4 384.7 511.6 391.7 506.6 396.1 C 506.6 396.1 378.6 508.1 378.6 508.1 C 373 513 364.7 513.4 358.7 509 C 352.7 504.6 350.5 496.6 353.4 489.8 C 353.4 489.8 391.7 400 391.7 400 C 391.7 400 336 400 336 400 C 329.3 400 323.4 395.9 321 389.6 C 318.6 383.3 320.4 376.3 325.4 371.9 C 325.4 371.9 453.4 259.9 453.4 259.9 C 459 255 467.3 254.6 473.3 259 C 479.3 263.4 481.5 271.4 478.6 278.2 C 478.6 278.2 478.7 278.3 478.7 278.3 M 139.7 219.1 C 133.2 225.6 122.7 225.6 116.7 219.1 C 116.7 219.1 19.9 119.2 19.9 119.2 C -8.1 90.2 -6.6 42.3 24.9 15.3 C 51.9 -8.2 93.3 -3.7 118.3 21.8 C 118.3 21.8 128.3 32.3 128.3 32.3 C 128.3 32.3 137.8 21.8 137.8 21.8 C 162.8 -3.7 203.7 -8.2 231.7 15.3 C 262.7 42.3 264.2 90.2 236.2 119.2 C 236.2 119.2 139.8 219.1 139.8 219.1 C 139.8 219.1 139.7 219.1 139.7 219.1 " fill="#79EA25" fill-rule="nonzero" stroke="none" />
         </g>
      </g>
      <clipPath id="cp071994">
         <rect x="0px" y="0px" width="576px" height="512px" />
      </clipPath>
      <g clip-path="url(#cp071994)">
         <clipPath id="cp071995">
            <rect x="0px" y="0px" width="512px" height="512px" />
         </clipPath>
         <g clip-path="url(#cp071995)">
            <path d="M 500.3 7.3 C 507.7 13.3 512 22.4 512 32 C 512 32 512 176 512 176 C 512 202.5 483.3 224 448 224 C 412.7 224 384 202.5 384 176 C 384 149.5 412.7 128 448 128 C 448 128 448 71 448 71 C 448 71 352 90.2 352 90.2 C 352 90.2 352 208 352 208 C 352 234.5 323.3 256 288 256 C 252.7 256 224 234.5 224 208 C 224 181.5 252.7 160 288 160 C 288 160 288 64 288 64 C 288 48.7 298.8 35.6 313.7 32.6 C 313.7 32.6 473.7 0.6 473.7 0.6 C 475.776 0.18 477.868 -0.025 479.946 -0.025 C 487.278 -0.025 494.457 2.526 500.3 7.2 C 500.3 7.2 500.3 7.3 500.3 7.3 " fill="#AAA" fill-rule="evenodd" stroke="none" />
         </g>
      </g>
      <clipPath id="cp071996">
         <rect x="0px" y="0px" width="576px" height="512px" />
      </clipPath>
      <g clip-path="url(#cp071996)">
      </g>
      <clipPath id="cp071997">
         <rect x="0px" y="0px" width="576px" height="512px" />
      </clipPath>
      <g clip-path="url(#cp071997)">
         <clipPath id="cp071998">
            <rect x="0px" y="0px" width="512px" height="512px" />
         </clipPath>
         <g clip-path="url(#cp071998)">
            <path d="M 74.7 304 C 74.7 304 86.5 286.2 86.5 286.2 C 92.4 277.3 102.4 272 113.1 272 C 113.1 272 174.8 272 174.8 272 C 185.5 272 195.5 277.3 201.4 286.2 C 201.4 286.2 213.3 304 213.3 304 C 213.3 304 240 304 240 304 C 266.5 304 288 325.5 288 352 C 288 352 288 464 288 464 C 288 490.5 266.5 512 240 512 C 240 512 48 512 48 512 C 21.5 512 0 490.5 0 464 C 0 464 0 352 0 352 C 0 325.5 21.5 304 48 304 C 48 304 74.7 304 74.7 304 M 192 408 C 192 381.508 170.492 360 144 360 C 117.508 360 96 381.508 96 408 C 96 434.492 117.508 456 144 456 C 170.492 456 192 434.492 192 408 " fill="#389CFF" fill-rule="evenodd" stroke="none" />
         </g>
      </g>
      <clipPath id="cp071999">
         <rect x="0px" y="0px" width="576px" height="512px" />
      </clipPath>
      <g clip-path="url(#cp071999)">
         <clipPath id="cp07199A">
            <rect x="0px" y="0px" width="512px" height="512px" />
         </clipPath>
         <g clip-path="url(#cp07199A)">
            <path d="M 74.7 304 C 74.7 304 86.5 286.2 86.5 286.2 C 92.4 277.3 102.4 272 113.1 272 C 113.1 272 174.8 272 174.8 272 C 185.5 272 195.5 277.3 201.4 286.2 C 201.4 286.2 213.3 304 213.3 304 C 213.3 304 240 304 240 304 C 266.5 304 288 325.5 288 352 C 288 352 288 464 288 464 C 288 490.5 266.5 512 240 512 C 240 512 48 512 48 512 C 21.5 512 0 490.5 0 464 C 0 464 0 352 0 352 C 0 325.5 21.5 304 48 304 C 48 304 74.7 304 74.7 304 M 192 408 C 192 381.508 170.492 360 144 360 C 117.508 360 96 381.508 96 408 C 96 434.492 117.508 456 144 456 C 170.492 456 192 434.492 192 408 " fill="#AAA" fill-rule="evenodd" stroke="none" />
         </g>
      </g>
      <clipPath id="cp07199B">
         <rect x="0px" y="0px" width="576px" height="512px" />
      </clipPath>
      <g clip-path="url(#cp07199B)">
      </g>
      <clipPath id="cp07199C">
         <rect x="0px" y="0px" width="576px" height="512px" />
      </clipPath>
      <g clip-path="url(#cp07199C)">
         <clipPath id="cp07199D">
            <rect x="0px" y="0px" width="512px" height="512px" />
         </clipPath>
         <g clip-path="url(#cp07199D)">
            <path d="M 478.7 278.3 C 478.7 278.3 440.3 368 440.3 368 C 440.3 368 496 368 496 368 C 502.7 368 508.6 372.1 511 378.4 C 511.711 380.266 512.053 382.193 512.053 384.096 C 512.053 388.618 510.119 393.003 506.6 396.1 C 506.6 396.1 378.6 508.1 378.6 508.1 C 375.605 510.721 371.837 512.054 368.061 512.054 C 364.779 512.054 361.491 511.046 358.7 509 C 354.473 505.9 352.132 501.013 352.132 496.017 C 352.132 493.923 352.543 491.809 353.4 489.8 C 353.4 489.8 391.7 400 391.7 400 C 391.7 400 336 400 336 400 C 329.3 400 323.4 395.9 321 389.6 C 320.289 387.734 319.947 385.807 319.947 383.904 C 319.947 379.382 321.881 374.997 325.4 371.9 C 325.4 371.9 453.4 259.9 453.4 259.9 C 456.395 257.279 460.163 255.946 463.939 255.946 C 467.221 255.946 470.509 256.954 473.3 259 C 477.527 262.1 479.868 266.987 479.868 271.983 C 479.868 274.077 479.457 276.191 478.6 278.2 C 478.6 278.2 478.7 278.3 478.7 278.3 " fill="#FFFF1C" fill-rule="evenodd" stroke="none" />
         </g>
      </g>
      <clipPath id="cp07199E">
         <rect x="0px" y="0px" width="576px" height="512px" />
      </clipPath>
      <g clip-path="url(#cp07199E)">
      </g>
      <clipPath id="cp07199F">
         <rect x="0px" y="0px" width="576px" height="512px" />
      </clipPath>
      <g clip-path="url(#cp07199F)">
         <clipPath id="cp0719A0">
            <rect x="0px" y="0px" width="512px" height="512px" />
         </clipPath>
         <g clip-path="url(#cp0719A0)">
            <path d="M 478.7 278.3 C 478.7 278.3 440.3 368 440.3 368 C 440.3 368 496 368 496 368 C 502.7 368 508.6 372.1 511 378.4 C 511.711 380.266 512.053 382.193 512.053 384.096 C 512.053 388.618 510.119 393.003 506.6 396.1 C 506.6 396.1 378.6 508.1 378.6 508.1 C 375.605 510.721 371.837 512.054 368.061 512.054 C 364.779 512.054 361.491 511.046 358.7 509 C 354.473 505.9 352.132 501.013 352.132 496.017 C 352.132 493.923 352.543 491.809 353.4 489.8 C 353.4 489.8 391.7 400 391.7 400 C 391.7 400 336 400 336 400 C 329.3 400 323.4 395.9 321 389.6 C 320.289 387.734 319.947 385.807 319.947 383.904 C 319.947 379.382 321.881 374.997 325.4 371.9 C 325.4 371.9 453.4 259.9 453.4 259.9 C 456.395 257.279 460.163 255.946 463.939 255.946 C 467.221 255.946 470.509 256.954 473.3 259 C 477.527 262.1 479.868 266.987 479.868 271.983 C 479.868 274.077 479.457 276.191 478.6 278.2 C 478.6 278.2 478.7 278.3 478.7 278.3 " fill="#FF9C38" fill-rule="evenodd" stroke="none" />
         </g>
      </g>
      <clipPath id="cp0719A1">
         <rect x="0px" y="0px" width="576px" height="512px" />
      </clipPath>
      <g clip-path="url(#cp0719A1)">
         <clipPath id="cp0719A2">
            <rect x="0px" y="0px" width="512px" height="512px" />
         </clipPath>
         <g clip-path="url(#cp0719A2)">
            <path d="M 478.7 278.3 C 478.7 278.3 440.3 368 440.3 368 C 440.3 368 496 368 496 368 C 502.7 368 508.6 372.1 511 378.4 C 511.711 380.266 512.053 382.193 512.053 384.096 C 512.053 388.618 510.119 393.003 506.6 396.1 C 506.6 396.1 378.6 508.1 378.6 508.1 C 375.605 510.721 371.837 512.054 368.061 512.054 C 364.779 512.054 361.491 511.046 358.7 509 C 354.473 505.9 352.132 501.013 352.132 496.017 C 352.132 493.923 352.543 491.809 353.4 489.8 C 353.4 489.8 391.7 400 391.7 400 C 391.7 400 336 400 336 400 C 329.3 400 323.4 395.9 321 389.6 C 320.289 387.734 319.947 385.807 319.947 383.904 C 319.947 379.382 321.881 374.997 325.4 371.9 C 325.4 371.9 453.4 259.9 453.4 259.9 C 456.395 257.279 460.163 255.946 463.939 255.946 C 467.221 255.946 470.509 256.954 473.3 259 C 477.527 262.1 479.868 266.987 479.868 271.983 C 479.868 274.077 479.457 276.191 478.6 278.2 C 478.6 278.2 478.7 278.3 478.7 278.3 " fill="#AAA" fill-rule="evenodd" stroke="none" />
         </g>
      </g>
      <clipPath id="cp0719A3">
         <rect x="0px" y="0px" width="576px" height="512px" />
      </clipPath>
      <g clip-path="url(#cp0719A3)">
      </g>
      <clipPath id="cp0719A4">
         <rect x="0px" y="0px" width="576px" height="512px" />
      </clipPath>
      <g clip-path="url(#cp0719A4)">
         <clipPath id="cp0719A5">
            <rect x="0px" y="0px" width="512px" height="512px" />
         </clipPath>
         <g clip-path="url(#cp0719A5)">
            <path d="M 139.7 219.1 C 136.45 222.35 132.2 223.975 128.012 223.975 C 123.825 223.975 119.7 222.35 116.7 219.1 C 116.7 219.1 19.9 119.2 19.9 119.2 C 6.665 105.492 0.021 87.562 0.021 69.612 C 0.021 49.587 8.29 29.538 24.9 15.3 C 36.897 4.859 51.736 -0.055 66.717 -0.055 C 85.452 -0.055 104.408 7.63 118.3 21.8 C 118.3 21.8 128.3 32.3 128.3 32.3 C 128.3 32.3 137.8 21.8 137.8 21.8 C 151.692 7.63 170.494 -0.055 189.263 -0.055 C 204.271 -0.055 219.259 4.859 231.7 15.3 C 247.988 29.486 256.132 49.443 256.132 69.396 C 256.132 87.418 249.488 105.437 236.2 119.2 C 236.2 119.2 139.8 219.1 139.8 219.1 C 139.8 219.1 139.7 219.1 139.7 219.1 " fill="#E30000" fill-rule="evenodd" stroke="none" />
         </g>
      </g>
      <clipPath id="cp0719A6">
         <rect x="0px" y="0px" width="576px" height="512px" />
      </clipPath>
      <g clip-path="url(#cp0719A6)">
         <clipPath id="cp0719A7">
            <rect x="0px" y="0px" width="512px" height="512px" />
         </clipPath>
         <g clip-path="url(#cp0719A7)">
            <path d="M 139.7 219.1 C 136.45 222.35 132.2 223.975 128.012 223.975 C 123.825 223.975 119.7 222.35 116.7 219.1 C 116.7 219.1 19.9 119.2 19.9 119.2 C 6.665 105.492 0.021 87.562 0.021 69.612 C 0.021 49.587 8.29 29.538 24.9 15.3 C 36.897 4.859 51.736 -0.055 66.717 -0.055 C 85.452 -0.055 104.408 7.63 118.3 21.8 C 118.3 21.8 128.3 32.3 128.3 32.3 C 128.3 32.3 137.8 21.8 137.8 21.8 C 151.692 7.63 170.494 -0.055 189.263 -0.055 C 204.271 -0.055 219.259 4.859 231.7 15.3 C 247.988 29.486 256.132 49.443 256.132 69.396 C 256.132 87.418 249.488 105.437 236.2 119.2 C 236.2 119.2 139.8 219.1 139.8 219.1 C 139.8 219.1 139.7 219.1 139.7 219.1 " fill="#AAA" fill-rule="evenodd" stroke="none" />
         </g>
      </g>
      <clipPath id="cp0719A8">
         <rect x="0px" y="0px" width="576px" height="512px" />
      </clipPath>
      <g clip-path="url(#cp0719A8)">
      </g>
   </g>
</svg>