<?xml version="1.0" standalone="no"?>
<!DOCTYPE svg PUBLIC "-//W3C//DTD SVG 20010904//EN"
   "http://www.w3.org/TR/2001/REC-SVG-20010904/DTD/svg10.dtd">

<svg xmlns="http://www.w3.org/2000/svg" xmlns:xlink="http://www.w3.org/1999/xlink" viewBox="0 0 512 512" width="30" height="20">
   <g id="cvpage1_top" width="612px" height="792px" transform="translate(0,0)">
      <clipPath id="cp0719BD">
         <rect x="0px" y="0px" width="512px" height="512px" />
      </clipPath>
      <g clip-path="url(#cp0719BD)">
         <path d="M 480 32 C 480 19.1 472.2 7.4 460.2 2.4 C 448.2 -2.6 434.5 0.2 425.3 9.3 C 425.3 9.3 381.7 53 381.7 53 C 333.7 101 268.6 128 200.7 128 C 200.7 128 192 128 192 128 C 192 128 160 128 160 128 C 160 128 64 128 64 128 C 28.7 128 0 156.7 0 192 C 0 192 0 288 0 288 C 0 323.3 28.7 352 64 352 C 64 352 64 480 64 480 C 64 497.7 78.3 512 96 512 C 96 512 160 512 160 512 C 177.7 512 192 497.7 192 480 C 192 480 192 352 192 352 C 192 352 200.7 352 200.7 352 C 268.6 352 333.7 379 381.7 427 C 381.7 427 425.3 470.6 425.3 470.6 C 434.5 479.8 448.2 482.5 460.2 477.5 C 472.2 472.5 480 460.9 480 447.9 C 480 447.9 480 300.4 480 300.4 C 498.6 291.6 512 267.9 512 240 C 512 212.1 498.6 188.4 480 179.6 C 480 179.6 480 32 480 32 M 416 108.7 C 416 108.7 416 240 416 240 C 416 240 416 371.3 416 371.3 C 357.2 317.8 280.5 288 200.7 288 C 200.7 288 192 288 192 288 C 192 288 192 192 192 192 C 192 192 200.7 192 200.7 192 C 280.5 192 357.2 162.2 416 108.7 " fill="#70633E" fill-rule="nonzero" stroke="none" />
      </g>
      <clipPath id="cp0719BE">
         <rect x="0px" y="0px" width="512px" height="512px" />
      </clipPath>
      <g clip-path="url(#cp0719BE)">
         <path d="M 460.2 2.4 C 472.2 7.4 480 19.1 480 32 C 480 32 480 179.6 480 179.6 C 498.6 188.4 512 212.1 512 240 C 512 267.9 498.6 291.6 480 300.4 C 480 300.4 480 447.9 480 447.9 C 480 460.9 472.2 472.5 460.2 477.5 C 456.2 479.167 452.011 479.978 447.863 479.978 C 439.567 479.978 431.433 476.733 425.3 470.6 C 425.3 470.6 381.7 427 381.7 427 C 333.7 379 268.6 352 200.7 352 C 200.7 352 192 352 192 352 C 192 352 192 480 192 480 C 192 497.7 177.7 512 160 512 C 160 512 96 512 96 512 C 78.3 512 64 497.7 64 480 C 64 480 64 352 64 352 C 28.7 352 0 323.3 0 288 C 0 288 0 192 0 192 C 0 156.7 28.7 128 64 128 C 64 128 160 128 160 128 C 160 128 192 128 192 128 C 192 128 200.7 128 200.7 128 C 268.6 128 333.7 101 381.7 53 C 381.7 53 425.3 9.3 425.3 9.3 C 431.454 3.213 439.622 -0.056 447.948 -0.056 C 452.068 -0.056 456.227 0.745 460.2 2.4 M 416 240 C 416 240 416 108.7 416 108.7 C 357.2 162.2 280.5 192 200.7 192 C 200.7 192 192 192 192 192 C 192 192 192 288 192 288 C 192 288 200.7 288 200.7 288 C 280.5 288 357.2 317.8 416 371.3 C 416 371.3 416 240 416 240 " fill="#AAA" fill-rule="evenodd" stroke="none" />
      </g>
   </g>
</svg>