<?xml version="1.0" standalone="no"?>
<!DOCTYPE svg PUBLIC "-//W3C//DTD SVG 20010904//EN"
   "http://www.w3.org/TR/2001/REC-SVG-20010904/DTD/svg10.dtd">

<svg xmlns="http://www.w3.org/2000/svg" xmlns:xlink="http://www.w3.org/1999/xlink" width="612px" height="792px" viewBox="0 0 512 512">
   <g id="cvpage1_top" width="612px" height="792px" transform="translate(0,0)">
      <clipPath id="cp071963">
         <rect x="0px" y="0px" width="512px" height="512px" />
      </clipPath>
      <g clip-path="url(#cp071963)">
         <path d="M 377.9 105.9 C 377.9 105.9 500.7 228.7 500.7 228.7 C 507.9 235.9 512 245.8 512 256 C 512 266.2 507.9 276.1 500.7 283.3 C 500.7 283.3 377.9 406.1 377.9 406.1 C 371.5 412.5 362.9 416 353.9 416 C 335.2 416 320 400.8 320 382.1 C 320 382.1 320 320 320 320 C 320 320 192 320 192 320 C 174.3 320 160 305.7 160 288 C 160 288 160 224 160 224 C 160 206.3 174.3 192 192 192 C 192 192 320 192 320 192 C 320 192 320 129.9 320 129.9 C 320 111.2 335.2 96 353.9 96 C 362.9 96 371.5 99.6 377.9 105.9 M 160 96 C 160 96 96 96 96 96 C 78.3 96 64 110.3 64 128 C 64 128 64 384 64 384 C 64 401.7 78.3 416 96 416 C 96 416 160 416 160 416 C 177.7 416 192 430.3 192 448 C 192 465.7 177.7 480 160 480 C 160 480 96 480 96 480 C 43 480 0 437 0 384 C 0 384 0 128 0 128 C 0 75 43 32 96 32 C 96 32 160 32 160 32 C 177.7 32 192 46.3 192 64 C 192 81.7 177.7 96 160 96 " fill="#000" fill-rule="nonzero" stroke="none" />
      </g>
      <clipPath id="cp071964">
         <rect x="0px" y="0px" width="512px" height="512px" />
      </clipPath>
      <g clip-path="url(#cp071964)">
         <path d="M 160 96 C 160 96 96 96 96 96 C 78.3 96 64 110.3 64 128 C 64 128 64 384 64 384 C 64 401.7 78.3 416 96 416 C 96 416 160 416 160 416 C 177.7 416 192 430.3 192 448 C 192 465.7 177.7 480 160 480 C 160 480 96 480 96 480 C 43 480 0 437 0 384 C 0 384 0 128 0 128 C 0 75 43 32 96 32 C 96 32 160 32 160 32 C 177.7 32 192 46.3 192 64 C 192 81.7 177.7 96 160 96 " fill="#8E4700" fill-rule="evenodd" stroke="none" />
      </g>
      <clipPath id="cp071965">
         <rect x="0px" y="0px" width="512px" height="512px" />
      </clipPath>
      <g clip-path="url(#cp071965)">
         <path d="M 377.9 105.9 C 377.9 105.9 500.7 228.7 500.7 228.7 C 507.9 235.9 512 245.8 512 256 C 512 266.2 507.9 276.1 500.7 283.3 C 500.7 283.3 377.9 406.1 377.9 406.1 C 371.5 412.5 362.9 416 353.9 416 C 335.2 416 320 400.8 320 382.1 C 320 382.1 320 320 320 320 C 320 320 192 320 192 320 C 174.3 320 160 305.7 160 288 C 160 288 160 224 160 224 C 160 206.3 174.3 192 192 192 C 192 192 320 192 320 192 C 320 192 320 129.9 320 129.9 C 320 111.2 335.2 96 353.9 96 C 362.9 96 371.5 99.6 377.9 105.9 " fill="#FFFF1C" fill-rule="evenodd" stroke="none" />
      </g>
   </g>
</svg>